<svg xmlns="http://www.w3.org/2000/svg" xmlns:xlink="http://www.w3.org/1999/xlink" viewBox="0 0 800 600"><path d="M 0 0
L 800 0
L 800 600
L 0 600
L 0 0" style="stroke:none;fill:white"/><text x="10" y="26" style="stroke:none;fill:rgb(70,70,70);font-size:15.3px;font-family:'Roboto Medium',sans-serif">Candlestick Chart</text><path d="M 314 26
L 329 26
L 321 13
L 314 26" style="stroke:none;fill:rgb(34,197,94)"/><path d="M 329 13
L 344 13
L 336 26
L 329 13" style="stroke:none;fill:rgb(239,68,68)"/><text x="346" y="25" style="stroke:none;fill:rgb(70,70,70);font-size:15.3px;font-family:'Roboto Medium',sans-serif">Price</text><path d="M 402 26
L 417 26
L 409 13
L 402 26" style="stroke:none;fill:rgb(64,160,110)"/><path d="M 417 13
L 432 13
L 424 26
L 417 13" style="stroke:none;fill:rgb(250,128,80)"/><text x="434" y="25" style="stroke:none;fill:rgb(70,70,70);font-size:15.3px;font-family:'Roboto Medium',sans-serif">Volume</text><text x="764" y="52" style="stroke:none;fill:rgb(70,70,70);font-size:15.3px;font-family:'Roboto Medium',sans-serif">260</text><text x="764" y="125" style="stroke:none;fill:rgb(70,70,70);font-size:15.3px;font-family:'Roboto Medium',sans-serif">250</text><text x="764" y="199" style="stroke:none;fill:rgb(70,70,70);font-size:15.3px;font-family:'Roboto Medium',sans-serif">240</text><text x="764" y="273" style="stroke:none;fill:rgb(70,70,70);font-size:15.3px;font-family:'Roboto Medium',sans-serif">230</text><text x="764" y="347" style="stroke:none;fill:rgb(70,70,70);font-size:15.3px;font-family:'Roboto Medium',sans-serif">220</text><text x="764" y="421" style="stroke:none;fill:rgb(70,70,70);font-size:15.3px;font-family:'Roboto Medium',sans-serif">210</text><text x="764" y="495" style="stroke:none;fill:rgb(70,70,70);font-size:15.3px;font-family:'Roboto Medium',sans-serif">200</text><text x="764" y="569" style="stroke:none;fill:rgb(70,70,70);font-size:15.3px;font-family:'Roboto Medium',sans-serif">190</text><text x="9" y="52" style="stroke:none;fill:rgb(70,70,70);font-size:15.3px;font-family:'Roboto Medium',sans-serif">125</text><text x="9" y="125" style="stroke:none;fill:rgb(70,70,70);font-size:15.3px;font-family:'Roboto Medium',sans-serif">120</text><text x="9" y="199" style="stroke:none;fill:rgb(70,70,70);font-size:15.3px;font-family:'Roboto Medium',sans-serif">115</text><text x="9" y="273" style="stroke:none;fill:rgb(70,70,70);font-size:15.3px;font-family:'Roboto Medium',sans-serif">110</text><text x="9" y="347" style="stroke:none;fill:rgb(70,70,70);font-size:15.3px;font-family:'Roboto Medium',sans-serif">105</text><text x="9" y="421" style="stroke:none;fill:rgb(70,70,70);font-size:15.3px;font-family:'Roboto Medium',sans-serif">100</text><text x="18" y="495" style="stroke:none;fill:rgb(70,70,70);font-size:15.3px;font-family:'Roboto Medium',sans-serif">95</text><text x="18" y="569" style="stroke:none;fill:rgb(70,70,70);font-size:15.3px;font-family:'Roboto Medium',sans-serif">90</text><path d="M 42 46
L 754 46" style="stroke-width:1;stroke:rgb(224,230,242);fill:none"/><path d="M 42 120
L 754 120" style="stroke-width:1;stroke:rgb(224,230,242);fill:none"/><path d="M 42 194
L 754 194" style="stroke-width:1;stroke:rgb(224,230,242);fill:none"/><path d="M 42 268
L 754 268" style="stroke-width:1;stroke:rgb(224,230,242);fill:none"/><path d="M 42 342
L 754 342" style="stroke-width:1;stroke:rgb(224,230,242);fill:none"/><path d="M 42 416
L 754 416" style="stroke-width:1;stroke:rgb(224,230,242);fill:none"/><path d="M 42 490
L 754 490" style="stroke-width:1;stroke:rgb(224,230,242);fill:none"/><path d="M 46 565
L 754 565" style="stroke-width:1;stroke:rgb(110,112,121);fill:none"/><path d="M 46 570
L 46 565" style="stroke-width:1;stroke:rgb(110,112,121);fill:none"/><path d="M 187 570
L 187 565" style="stroke-width:1;stroke:rgb(110,112,121);fill:none"/><path d="M 329 570
L 329 565" style="stroke-width:1;stroke:rgb(110,112,121);fill:none"/><path d="M 470 570
L 470 565" style="stroke-width:1;stroke:rgb(110,112,121);fill:none"/><path d="M 612 570
L 612 565" style="stroke-width:1;stroke:rgb(110,112,121);fill:none"/><path d="M 754 570
L 754 565" style="stroke-width:1;stroke:rgb(110,112,121);fill:none"/><text x="103" y="588" style="stroke:none;fill:rgb(70,70,70);font-size:15.3px;font-family:'Roboto Medium',sans-serif">Jan</text><text x="245" y="588" style="stroke:none;fill:rgb(70,70,70);font-size:15.3px;font-family:'Roboto Medium',sans-serif">Feb</text><text x="385" y="588" style="stroke:none;fill:rgb(70,70,70);font-size:15.3px;font-family:'Roboto Medium',sans-serif">Mar</text><text x="529" y="588" style="stroke:none;fill:rgb(70,70,70);font-size:15.3px;font-family:'Roboto Medium',sans-serif">Apr</text><text x="668" y="588" style="stroke:none;fill:rgb(70,70,70);font-size:15.3px;font-family:'Roboto Medium',sans-serif">May</text><path d="M 86 269
L 86 343" style="stroke-width:1;stroke:rgb(34,197,94);fill:none"/><path d="M 86 417
L 86 491" style="stroke-width:1;stroke:rgb(34,197,94);fill:none"/><path d="M 72 269
L 100 269" style="stroke-width:1;stroke:rgb(34,197,94);fill:none"/><path d="M 72 491
L 100 491" style="stroke-width:1;stroke:rgb(34,197,94);fill:none"/><path d="M 58 343
L 114 343
L 114 417
L 58 417
L 58 343" style="stroke:none;fill:rgb(34,197,94)"/><path d="M 227 195
L 227 239" style="stroke-width:1;stroke:rgb(34,197,94);fill:none"/><path d="M 227 343
L 227 417" style="stroke-width:1;stroke:rgb(34,197,94);fill:none"/><path d="M 213 195
L 241 195" style="stroke-width:1;stroke:rgb(34,197,94);fill:none"/><path d="M 213 417
L 241 417" style="stroke-width:1;stroke:rgb(34,197,94);fill:none"/><path d="M 199 239
L 255 239
L 255 343
L 199 343
L 199 239" style="stroke:none;fill:rgb(34,197,94)"/><path d="M 369 150
L 369 195" style="stroke-width:1;stroke:rgb(34,197,94);fill:none"/><path d="M 369 239
L 369 299" style="stroke-width:1;stroke:rgb(34,197,94);fill:none"/><path d="M 355 150
L 383 150" style="stroke-width:1;stroke:rgb(34,197,94);fill:none"/><path d="M 355 299
L 383 299" style="stroke-width:1;stroke:rgb(34,197,94);fill:none"/><path d="M 341 195
L 397 195
L 397 239
L 341 239
L 341 195" style="stroke:none;fill:rgb(34,197,94)"/><path d="M 510 121
L 510 195" style="stroke-width:1;stroke:rgb(239,68,68);fill:none"/><path d="M 510 299
L 510 343" style="stroke-width:1;stroke:rgb(239,68,68);fill:none"/><path d="M 496 121
L 524 121" style="stroke-width:1;stroke:rgb(239,68,68);fill:none"/><path d="M 496 343
L 524 343" style="stroke-width:1;stroke:rgb(239,68,68);fill:none"/><path d="M 482 195
L 538 195
L 538 299
L 482 299
L 482 195" style="stroke:none;fill:rgb(239,68,68)"/><path d="M 652 224
L 652 284" style="stroke-width:1;stroke:rgb(34,197,94);fill:none"/><path d="M 652 299
L 652 343" style="stroke-width:1;stroke:rgb(34,197,94);fill:none"/><path d="M 638 224
L 666 224" style="stroke-width:1;stroke:rgb(34,197,94);fill:none"/><path d="M 638 343
L 666 343" style="stroke-width:1;stroke:rgb(34,197,94);fill:none"/><path d="M 624 284
L 680 284
L 680 299
L 624 299
L 624 284" style="stroke:none;fill:rgb(34,197,94)"/><path d="M 147 343
L 147 417" style="stroke-width:1;stroke:rgb(64,160,110);fill:none"/><path d="M 147 491
L 147 565" style="stroke-width:1;stroke:rgb(64,160,110);fill:none"/><path d="M 133 343
L 161 343" style="stroke-width:1;stroke:rgb(64,160,110);fill:none"/><path d="M 133 565
L 161 565" style="stroke-width:1;stroke:rgb(64,160,110);fill:none"/><path d="M 119 417
L 175 417
L 175 491
L 119 491
L 119 417" style="stroke:none;fill:rgb(64,160,110)"/><path d="M 288 269
L 288 306" style="stroke-width:1;stroke:rgb(64,160,110);fill:none"/><path d="M 288 417
L 288 491" style="stroke-width:1;stroke:rgb(64,160,110);fill:none"/><path d="M 274 269
L 302 269" style="stroke-width:1;stroke:rgb(64,160,110);fill:none"/><path d="M 274 491
L 302 491" style="stroke-width:1;stroke:rgb(64,160,110);fill:none"/><path d="M 260 306
L 316 306
L 316 417
L 260 417
L 260 306" style="stroke:none;fill:rgb(64,160,110)"/><path d="M 430 195
L 430 269" style="stroke-width:1;stroke:rgb(64,160,110);fill:none"/><path d="M 430 306
L 430 380" style="stroke-width:1;stroke:rgb(64,160,110);fill:none"/><path d="M 416 195
L 444 195" style="stroke-width:1;stroke:rgb(64,160,110);fill:none"/><path d="M 416 380
L 444 380" style="stroke-width:1;stroke:rgb(64,160,110);fill:none"/><path d="M 402 269
L 458 269
L 458 306
L 402 306
L 402 269" style="stroke:none;fill:rgb(64,160,110)"/><path d="M 571 158
L 571 269" style="stroke-width:1;stroke:rgb(250,128,80);fill:none"/><path d="M 571 380
L 571 417" style="stroke-width:1;stroke:rgb(250,128,80);fill:none"/><path d="M 557 158
L 585 158" style="stroke-width:1;stroke:rgb(250,128,80);fill:none"/><path d="M 557 417
L 585 417" style="stroke-width:1;stroke:rgb(250,128,80);fill:none"/><path d="M 543 269
L 599 269
L 599 380
L 543 380
L 543 269" style="stroke:none;fill:rgb(250,128,80)"/><path d="M 713 306
L 713 343" style="stroke-width:1;stroke:rgb(64,160,110);fill:none"/><path d="M 713 380
L 713 454" style="stroke-width:1;stroke:rgb(64,160,110);fill:none"/><path d="M 699 306
L 727 306" style="stroke-width:1;stroke:rgb(64,160,110);fill:none"/><path d="M 699 454
L 727 454" style="stroke-width:1;stroke:rgb(64,160,110);fill:none"/><path d="M 685 343
L 741 343
L 741 380
L 685 380
L 685 343" style="stroke:none;fill:rgb(64,160,110)"/></svg>