<svg xmlns="http://www.w3.org/2000/svg" xmlns:xlink="http://www.w3.org/1999/xlink" viewBox="0 0 600 400"><path d="M 0 0
L 600 0
L 600 400
L 0 400
L 0 0" style="stroke:none;fill:white"/><path d="M 40 20
L 40 356" style="stroke-width:1;stroke:rgb(110,112,121);fill:none"/><path d="M 35 20
L 40 20" style="stroke-width:1;stroke:rgb(110,112,121);fill:none"/><path d="M 35 76
L 40 76" style="stroke-width:1;stroke:rgb(110,112,121);fill:none"/><path d="M 35 132
L 40 132" style="stroke-width:1;stroke:rgb(110,112,121);fill:none"/><path d="M 35 188
L 40 188" style="stroke-width:1;stroke:rgb(110,112,121);fill:none"/><path d="M 35 244
L 40 244" style="stroke-width:1;stroke:rgb(110,112,121);fill:none"/><path d="M 35 300
L 40 300" style="stroke-width:1;stroke:rgb(110,112,121);fill:none"/><path d="M 35 356
L 40 356" style="stroke-width:1;stroke:rgb(110,112,121);fill:none"/><text x="21" y="53" style="stroke:none;fill:rgb(70,70,70);font-size:16px;font-family:'Roboto Medium',sans-serif">F</text><text x="20" y="109" style="stroke:none;fill:rgb(70,70,70);font-size:16px;font-family:'Roboto Medium',sans-serif">E</text><text x="19" y="165" style="stroke:none;fill:rgb(70,70,70);font-size:16px;font-family:'Roboto Medium',sans-serif">D</text><text x="19" y="220" style="stroke:none;fill:rgb(70,70,70);font-size:16px;font-family:'Roboto Medium',sans-serif">C</text><text x="19" y="276" style="stroke:none;fill:rgb(70,70,70);font-size:16px;font-family:'Roboto Medium',sans-serif">B</text><text x="19" y="332" style="stroke:none;fill:rgb(70,70,70);font-size:16px;font-family:'Roboto Medium',sans-serif">A</text><text x="40" y="375" style="stroke:none;fill:rgb(70,70,70);font-size:16px;font-family:'Roboto Medium',sans-serif">-18</text><text x="147" y="375" style="stroke:none;fill:rgb(70,70,70);font-size:16px;font-family:'Roboto Medium',sans-serif">-12</text><text x="255" y="375" style="stroke:none;fill:rgb(70,70,70);font-size:16px;font-family:'Roboto Medium',sans-serif">-6</text><text x="363" y="375" style="stroke:none;fill:rgb(70,70,70);font-size:16px;font-family:'Roboto Medium',sans-serif">0</text><text x="471" y="375" style="stroke:none;fill:rgb(70,70,70);font-size:16px;font-family:'Roboto Medium',sans-serif">6</text><text x="561" y="375" style="stroke:none;fill:rgb(70,70,70);font-size:16px;font-family:'Roboto Medium',sans-serif">12</text><path d="M 148 20
L 148 352" style="stroke-width:1;stroke:rgb(224,230,242);fill:none"/><path d="M 256 20
L 256 352" style="stroke-width:1;stroke:rgb(224,230,242);fill:none"/><path d="M 364 20
L 364 352" style="stroke-width:1;stroke:rgb(224,230,242);fill:none"/><path d="M 472 20
L 472 352" style="stroke-width:1;stroke:rgb(224,230,242);fill:none"/><path d="M 580 20
L 580 352" style="stroke-width:1;stroke:rgb(224,230,242);fill:none"/><path d="M 364 310
L 454 310
L 454 346
L 364 346
L 364 310" style="stroke:none;fill:rgb(84,112,198)"/><path d="M 364 254
L 544 254
L 544 290
L 364 290
L 364 254" style="stroke:none;fill:rgb(84,112,198)"/><path d="M 364 198
L 454 198
L 454 234
L 364 234
L 364 198" style="stroke:none;fill:rgb(84,112,198)"/><path d="M 274 142
L 364 142
L 364 178
L 274 178
L 274 142" style="stroke:none;fill:rgb(84,112,198)"/><path d="M 184 86
L 364 86
L 364 122
L 184 122
L 184 86" style="stroke:none;fill:rgb(84,112,198)"/><path d="M 274 30
L 364 30
L 364 66
L 274 66
L 274 30" style="stroke:none;fill:rgb(84,112,198)"/><path d="M 176.52 107.62
A 14 14 0 1 1 176.52 100.38
L 163 104
Z" style="stroke:none;fill:rgb(84,112,198)"/><path d="M 163 118
Q198,104 163,90
Z" style="stroke:none;fill:rgb(84,112,198)"/><text x="151" y="109" style="stroke:none;fill:rgb(238,238,238);font-size:13.3px;font-family:'Roboto Medium',sans-serif">-10</text><path d="M 551.48 268.38
A 14 14 0 1 1 551.48 275.62
L 565 272
Z" style="stroke:none;fill:rgb(84,112,198)"/><path d="M 565 258
Q530,272 565,286
Z" style="stroke:none;fill:rgb(84,112,198)"/><text x="561" y="277" style="stroke:none;fill:rgb(238,238,238);font-size:13.3px;font-family:'Roboto Medium',sans-serif">10</text></svg>