<svg xmlns="http://www.w3.org/2000/svg" xmlns:xlink="http://www.w3.org/1999/xlink" viewBox="0 0 600 400"><path d="M 0 0
L 600 0
L 600 400
L 0 400
L 0 0" style="stroke:none;fill:white"/><text x="10" y="26" style="stroke:none;fill:rgb(70,70,70);font-size:15.3px;font-family:'Roboto Medium',sans-serif">T</text><text x="564" y="47" style="stroke:none;fill:rgb(145,204,117);font-size:15.3px;font-family:'Roboto Medium',sans-serif">189</text><text x="564" y="82" style="stroke:none;fill:rgb(145,204,117);font-size:15.3px;font-family:'Roboto Medium',sans-serif">168</text><text x="564" y="118" style="stroke:none;fill:rgb(145,204,117);font-size:15.3px;font-family:'Roboto Medium',sans-serif">147</text><text x="564" y="154" style="stroke:none;fill:rgb(145,204,117);font-size:15.3px;font-family:'Roboto Medium',sans-serif">126</text><text x="564" y="190" style="stroke:none;fill:rgb(145,204,117);font-size:15.3px;font-family:'Roboto Medium',sans-serif">105</text><text x="564" y="225" style="stroke:none;fill:rgb(145,204,117);font-size:15.3px;font-family:'Roboto Medium',sans-serif">84</text><text x="564" y="261" style="stroke:none;fill:rgb(145,204,117);font-size:15.3px;font-family:'Roboto Medium',sans-serif">63</text><text x="564" y="297" style="stroke:none;fill:rgb(145,204,117);font-size:15.3px;font-family:'Roboto Medium',sans-serif">42</text><text x="564" y="333" style="stroke:none;fill:rgb(145,204,117);font-size:15.3px;font-family:'Roboto Medium',sans-serif">21</text><text x="564" y="369" style="stroke:none;fill:rgb(145,204,117);font-size:15.3px;font-family:'Roboto Medium',sans-serif">0</text><text x="9" y="47" style="stroke:none;fill:rgb(84,112,198);font-size:15.3px;font-family:'Roboto Medium',sans-serif">180</text><text x="9" y="82" style="stroke:none;fill:rgb(84,112,198);font-size:15.3px;font-family:'Roboto Medium',sans-serif">160</text><text x="9" y="118" style="stroke:none;fill:rgb(84,112,198);font-size:15.3px;font-family:'Roboto Medium',sans-serif">140</text><text x="9" y="154" style="stroke:none;fill:rgb(84,112,198);font-size:15.3px;font-family:'Roboto Medium',sans-serif">120</text><text x="9" y="190" style="stroke:none;fill:rgb(84,112,198);font-size:15.3px;font-family:'Roboto Medium',sans-serif">100</text><text x="18" y="225" style="stroke:none;fill:rgb(84,112,198);font-size:15.3px;font-family:'Roboto Medium',sans-serif">80</text><text x="18" y="261" style="stroke:none;fill:rgb(84,112,198);font-size:15.3px;font-family:'Roboto Medium',sans-serif">60</text><text x="18" y="297" style="stroke:none;fill:rgb(84,112,198);font-size:15.3px;font-family:'Roboto Medium',sans-serif">40</text><text x="18" y="333" style="stroke:none;fill:rgb(84,112,198);font-size:15.3px;font-family:'Roboto Medium',sans-serif">20</text><text x="27" y="369" style="stroke:none;fill:rgb(84,112,198);font-size:15.3px;font-family:'Roboto Medium',sans-serif">0</text><path d="M 42 41
L 554 41" style="stroke-width:1;stroke:rgb(224,230,242);fill:none"/><path d="M 42 77
L 554 77" style="stroke-width:1;stroke:rgb(224,230,242);fill:none"/><path d="M 42 113
L 554 113" style="stroke-width:1;stroke:rgb(224,230,242);fill:none"/><path d="M 42 149
L 554 149" style="stroke-width:1;stroke:rgb(224,230,242);fill:none"/><path d="M 42 185
L 554 185" style="stroke-width:1;stroke:rgb(224,230,242);fill:none"/><path d="M 42 221
L 554 221" style="stroke-width:1;stroke:rgb(224,230,242);fill:none"/><path d="M 42 257
L 554 257" style="stroke-width:1;stroke:rgb(224,230,242);fill:none"/><path d="M 42 293
L 554 293" style="stroke-width:1;stroke:rgb(224,230,242);fill:none"/><path d="M 42 329
L 554 329" style="stroke-width:1;stroke:rgb(224,230,242);fill:none"/><path d="M 46 365
L 554 365" style="stroke-width:1;stroke:rgb(110,112,121);fill:none"/><path d="M 46 370
L 46 365" style="stroke-width:1;stroke:rgb(110,112,121);fill:none"/><path d="M 88 370
L 88 365" style="stroke-width:1;stroke:rgb(110,112,121);fill:none"/><path d="M 130 370
L 130 365" style="stroke-width:1;stroke:rgb(110,112,121);fill:none"/><path d="M 173 370
L 173 365" style="stroke-width:1;stroke:rgb(110,112,121);fill:none"/><path d="M 215 370
L 215 365" style="stroke-width:1;stroke:rgb(110,112,121);fill:none"/><path d="M 257 370
L 257 365" style="stroke-width:1;stroke:rgb(110,112,121);fill:none"/><path d="M 300 370
L 300 365" style="stroke-width:1;stroke:rgb(110,112,121);fill:none"/><path d="M 342 370
L 342 365" style="stroke-width:1;stroke:rgb(110,112,121);fill:none"/><path d="M 384 370
L 384 365" style="stroke-width:1;stroke:rgb(110,112,121);fill:none"/><path d="M 427 370
L 427 365" style="stroke-width:1;stroke:rgb(110,112,121);fill:none"/><path d="M 469 370
L 469 365" style="stroke-width:1;stroke:rgb(110,112,121);fill:none"/><path d="M 511 370
L 511 365" style="stroke-width:1;stroke:rgb(110,112,121);fill:none"/><path d="M 554 370
L 554 365" style="stroke-width:1;stroke:rgb(110,112,121);fill:none"/><text x="54" y="388" style="stroke:none;fill:rgb(70,70,70);font-size:15.3px;font-family:'Roboto Medium',sans-serif">Jan</text><text x="96" y="388" style="stroke:none;fill:rgb(70,70,70);font-size:15.3px;font-family:'Roboto Medium',sans-serif">Feb</text><text x="137" y="388" style="stroke:none;fill:rgb(70,70,70);font-size:15.3px;font-family:'Roboto Medium',sans-serif">Mar</text><text x="182" y="388" style="stroke:none;fill:rgb(70,70,70);font-size:15.3px;font-family:'Roboto Medium',sans-serif">Apr</text><text x="221" y="388" style="stroke:none;fill:rgb(70,70,70);font-size:15.3px;font-family:'Roboto Medium',sans-serif">May</text><text x="265" y="388" style="stroke:none;fill:rgb(70,70,70);font-size:15.3px;font-family:'Roboto Medium',sans-serif">Jun</text><text x="311" y="388" style="stroke:none;fill:rgb(70,70,70);font-size:15.3px;font-family:'Roboto Medium',sans-serif">Jul</text><text x="349" y="388" style="stroke:none;fill:rgb(70,70,70);font-size:15.3px;font-family:'Roboto Medium',sans-serif">Aug</text><text x="392" y="388" style="stroke:none;fill:rgb(70,70,70);font-size:15.3px;font-family:'Roboto Medium',sans-serif">Sep</text><text x="436" y="388" style="stroke:none;fill:rgb(70,70,70);font-size:15.3px;font-family:'Roboto Medium',sans-serif">Oct</text><text x="476" y="388" style="stroke:none;fill:rgb(70,70,70);font-size:15.3px;font-family:'Roboto Medium',sans-serif">Nov</text><text x="519" y="388" style="stroke:none;fill:rgb(70,70,70);font-size:15.3px;font-family:'Roboto Medium',sans-serif">Dec</text><path d="M 51 362
L 65 362
L 65 364
L 51 364
L 51 362" style="stroke:none;fill:rgb(84,112,198)"/><path d="M 93 357
L 107 357
L 107 364
L 93 364
L 93 357" style="stroke:none;fill:rgb(84,112,198)"/><path d="M 135 353
L 149 353
L 149 364
L 135 364
L 135 353" style="stroke:none;fill:rgb(84,112,198)"/><path d="M 178 324
L 192 324
L 192 364
L 178 364
L 178 324" style="stroke:none;fill:rgb(84,112,198)"/><path d="M 220 319
L 234 319
L 234 364
L 220 364
L 220 319" style="stroke:none;fill:rgb(84,112,198)"/><path d="M 262 227
L 276 227
L 276 364
L 262 364
L 262 227" style="stroke:none;fill:rgb(84,112,198)"/><path d="M 305 121
L 319 121
L 319 364
L 305 364
L 305 121" style="stroke:none;fill:rgb(84,112,198)"/><path d="M 347 74
L 361 74
L 361 364
L 347 364
L 347 74" style="stroke:none;fill:rgb(84,112,198)"/><path d="M 389 307
L 403 307
L 403 364
L 389 364
L 389 307" style="stroke:none;fill:rgb(84,112,198)"/><path d="M 432 329
L 446 329
L 446 364
L 432 364
L 432 329" style="stroke:none;fill:rgb(84,112,198)"/><path d="M 474 354
L 488 354
L 488 364
L 474 364
L 474 354" style="stroke:none;fill:rgb(84,112,198)"/><path d="M 516 360
L 530 360
L 530 364
L 516 364
L 516 360" style="stroke:none;fill:rgb(84,112,198)"/><path d="M 68 361
L 82 361
L 82 364
L 68 364
L 68 361" style="stroke:none;fill:rgb(145,204,117)"/><path d="M 110 355
L 124 355
L 124 364
L 110 364
L 110 355" style="stroke:none;fill:rgb(145,204,117)"/><path d="M 152 350
L 166 350
L 166 364
L 152 364
L 152 350" style="stroke:none;fill:rgb(145,204,117)"/><path d="M 195 320
L 209 320
L 209 364
L 195 364
L 195 320" style="stroke:none;fill:rgb(145,204,117)"/><path d="M 237 316
L 251 316
L 251 364
L 237 364
L 237 316" style="stroke:none;fill:rgb(145,204,117)"/><path d="M 279 244
L 293 244
L 293 364
L 279 364
L 279 244" style="stroke:none;fill:rgb(145,204,117)"/><path d="M 322 64
L 336 64
L 336 364
L 322 364
L 322 64" style="stroke:none;fill:rgb(145,204,117)"/><path d="M 364 53
L 378 53
L 378 364
L 364 364
L 364 53" style="stroke:none;fill:rgb(145,204,117)"/><path d="M 406 282
L 420 282
L 420 364
L 406 364
L 406 282" style="stroke:none;fill:rgb(145,204,117)"/><path d="M 449 333
L 463 333
L 463 364
L 449 364
L 449 333" style="stroke:none;fill:rgb(145,204,117)"/><path d="M 491 355
L 505 355
L 505 364
L 491 364
L 491 355" style="stroke:none;fill:rgb(145,204,117)"/><path d="M 533 362
L 547 362
L 547 364
L 533 364
L 533 362" style="stroke:none;fill:rgb(145,204,117)"/><text x="54" y="357" style="stroke:none;fill:rgb(70,70,70);font-size:12.8px;font-family:'Roboto Medium',sans-serif">2</text><text x="91" y="352" style="stroke:none;fill:rgb(70,70,70);font-size:12.8px;font-family:'Roboto Medium',sans-serif">4.9</text><text x="138" y="348" style="stroke:none;fill:rgb(70,70,70);font-size:12.8px;font-family:'Roboto Medium',sans-serif">7</text><text x="172" y="319" style="stroke:none;fill:rgb(70,70,70);font-size:12.8px;font-family:'Roboto Medium',sans-serif">23.2</text><text x="214" y="314" style="stroke:none;fill:rgb(70,70,70);font-size:12.8px;font-family:'Roboto Medium',sans-serif">25.6</text><text x="256" y="222" style="stroke:none;fill:rgb(70,70,70);font-size:12.8px;font-family:'Roboto Medium',sans-serif">76.7</text><text x="296" y="116" style="stroke:none;fill:rgb(70,70,70);font-size:12.8px;font-family:'Roboto Medium',sans-serif">135.6</text><text x="338" y="69" style="stroke:none;fill:rgb(70,70,70);font-size:12.8px;font-family:'Roboto Medium',sans-serif">162.2</text><text x="383" y="302" style="stroke:none;fill:rgb(70,70,70);font-size:12.8px;font-family:'Roboto Medium',sans-serif">32.6</text><text x="432" y="324" style="stroke:none;fill:rgb(70,70,70);font-size:12.8px;font-family:'Roboto Medium',sans-serif">20</text><text x="472" y="349" style="stroke:none;fill:rgb(70,70,70);font-size:12.8px;font-family:'Roboto Medium',sans-serif">6.4</text><text x="514" y="355" style="stroke:none;fill:rgb(70,70,70);font-size:12.8px;font-family:'Roboto Medium',sans-serif">3.3</text><text x="66" y="356" style="stroke:none;fill:rgb(70,70,70);font-size:12.8px;font-family:'Roboto Medium',sans-serif">2.6</text><text x="108" y="350" style="stroke:none;fill:rgb(70,70,70);font-size:12.8px;font-family:'Roboto Medium',sans-serif">5.9</text><text x="155" y="345" style="stroke:none;fill:rgb(70,70,70);font-size:12.8px;font-family:'Roboto Medium',sans-serif">9</text><text x="189" y="315" style="stroke:none;fill:rgb(70,70,70);font-size:12.8px;font-family:'Roboto Medium',sans-serif">26.4</text><text x="231" y="311" style="stroke:none;fill:rgb(70,70,70);font-size:12.8px;font-family:'Roboto Medium',sans-serif">28.7</text><text x="273" y="239" style="stroke:none;fill:rgb(70,70,70);font-size:12.8px;font-family:'Roboto Medium',sans-serif">70.7</text><text x="313" y="59" style="stroke:none;fill:rgb(70,70,70);font-size:12.8px;font-family:'Roboto Medium',sans-serif">175.6</text><text x="355" y="48" style="stroke:none;fill:rgb(70,70,70);font-size:12.8px;font-family:'Roboto Medium',sans-serif">182.2</text><text x="400" y="277" style="stroke:none;fill:rgb(70,70,70);font-size:12.8px;font-family:'Roboto Medium',sans-serif">48.7</text><text x="443" y="328" style="stroke:none;fill:rgb(70,70,70);font-size:12.8px;font-family:'Roboto Medium',sans-serif">18.8</text><text x="494" y="350" style="stroke:none;fill:rgb(70,70,70);font-size:12.8px;font-family:'Roboto Medium',sans-serif">6</text><text x="531" y="357" style="stroke:none;fill:rgb(70,70,70);font-size:12.8px;font-family:'Roboto Medium',sans-serif">2.3</text></svg>