<svg xmlns="http://www.w3.org/2000/svg" xmlns:xlink="http://www.w3.org/1999/xlink" viewBox="0 0 600 400"><path d="M 0 0
L 600 0
L 600 400
L 0 400
L 0 0" style="stroke:none;fill:white"/><path d="M 217 29
L 247 29" style="stroke-width:3;stroke:rgb(84,112,198);fill:none"/><circle cx="232" cy="29" r="5" style="stroke-width:3;stroke:rgb(84,112,198);fill:rgb(84,112,198)"/><text x="249" y="35" style="stroke:none;fill:rgb(70,70,70);font-size:15.3px;font-family:'Roboto Medium',sans-serif">A</text><path d="M 280 29
L 310 29" style="stroke-width:3;stroke:rgb(145,204,117);fill:none"/><circle cx="295" cy="29" r="5" style="stroke-width:3;stroke:rgb(145,204,117);fill:rgb(145,204,117)"/><text x="312" y="35" style="stroke:none;fill:rgb(70,70,70);font-size:15.3px;font-family:'Roboto Medium',sans-serif">B</text><path d="M 342 29
L 372 29" style="stroke-width:3;stroke:rgb(250,200,88);fill:none"/><circle cx="357" cy="29" r="5" style="stroke-width:3;stroke:rgb(250,200,88);fill:rgb(250,200,88)"/><text x="374" y="35" style="stroke:none;fill:rgb(70,70,70);font-size:15.3px;font-family:'Roboto Medium',sans-serif">C</text><text x="19" y="62" style="stroke:none;fill:rgb(70,70,70);font-size:15.3px;font-family:'Roboto Medium',sans-serif">297</text><text x="19" y="95" style="stroke:none;fill:rgb(70,70,70);font-size:15.3px;font-family:'Roboto Medium',sans-serif">264</text><text x="19" y="128" style="stroke:none;fill:rgb(70,70,70);font-size:15.3px;font-family:'Roboto Medium',sans-serif">231</text><text x="19" y="161" style="stroke:none;fill:rgb(70,70,70);font-size:15.3px;font-family:'Roboto Medium',sans-serif">198</text><text x="19" y="194" style="stroke:none;fill:rgb(70,70,70);font-size:15.3px;font-family:'Roboto Medium',sans-serif">165</text><text x="19" y="227" style="stroke:none;fill:rgb(70,70,70);font-size:15.3px;font-family:'Roboto Medium',sans-serif">132</text><text x="28" y="260" style="stroke:none;fill:rgb(70,70,70);font-size:15.3px;font-family:'Roboto Medium',sans-serif">99</text><text x="28" y="293" style="stroke:none;fill:rgb(70,70,70);font-size:15.3px;font-family:'Roboto Medium',sans-serif">66</text><text x="28" y="326" style="stroke:none;fill:rgb(70,70,70);font-size:15.3px;font-family:'Roboto Medium',sans-serif">33</text><text x="37" y="359" style="stroke:none;fill:rgb(70,70,70);font-size:15.3px;font-family:'Roboto Medium',sans-serif">0</text><path d="M 52 56
L 580 56" style="stroke-width:1;stroke:rgb(224,230,242);fill:none"/><path d="M 52 89
L 580 89" style="stroke-width:1;stroke:rgb(224,230,242);fill:none"/><path d="M 52 122
L 580 122" style="stroke-width:1;stroke:rgb(224,230,242);fill:none"/><path d="M 52 155
L 580 155" style="stroke-width:1;stroke:rgb(224,230,242);fill:none"/><path d="M 52 188
L 580 188" style="stroke-width:1;stroke:rgb(224,230,242);fill:none"/><path d="M 52 222
L 580 222" style="stroke-width:1;stroke:rgb(224,230,242);fill:none"/><path d="M 52 255
L 580 255" style="stroke-width:1;stroke:rgb(224,230,242);fill:none"/><path d="M 52 288
L 580 288" style="stroke-width:1;stroke:rgb(224,230,242);fill:none"/><path d="M 52 321
L 580 321" style="stroke-width:1;stroke:rgb(224,230,242);fill:none"/><path d="M 56 355
L 580 355" style="stroke-width:1;stroke:rgb(110,112,121);fill:none"/><path d="M 56 360
L 56 355" style="stroke-width:1;stroke:rgb(110,112,121);fill:none"/><path d="M 121 360
L 121 355" style="stroke-width:1;stroke:rgb(110,112,121);fill:none"/><path d="M 187 360
L 187 355" style="stroke-width:1;stroke:rgb(110,112,121);fill:none"/><path d="M 252 360
L 252 355" style="stroke-width:1;stroke:rgb(110,112,121);fill:none"/><path d="M 318 360
L 318 355" style="stroke-width:1;stroke:rgb(110,112,121);fill:none"/><path d="M 383 360
L 383 355" style="stroke-width:1;stroke:rgb(110,112,121);fill:none"/><path d="M 449 360
L 449 355" style="stroke-width:1;stroke:rgb(110,112,121);fill:none"/><path d="M 514 360
L 514 355" style="stroke-width:1;stroke:rgb(110,112,121);fill:none"/><path d="M 580 360
L 580 355" style="stroke-width:1;stroke:rgb(110,112,121);fill:none"/><text x="84" y="378" style="stroke:none;fill:rgb(70,70,70);font-size:15.3px;font-family:'Roboto Medium',sans-serif">1</text><text x="150" y="378" style="stroke:none;fill:rgb(70,70,70);font-size:15.3px;font-family:'Roboto Medium',sans-serif">2</text><text x="215" y="378" style="stroke:none;fill:rgb(70,70,70);font-size:15.3px;font-family:'Roboto Medium',sans-serif">3</text><text x="281" y="378" style="stroke:none;fill:rgb(70,70,70);font-size:15.3px;font-family:'Roboto Medium',sans-serif">4</text><text x="346" y="378" style="stroke:none;fill:rgb(70,70,70);font-size:15.3px;font-family:'Roboto Medium',sans-serif">5</text><text x="412" y="378" style="stroke:none;fill:rgb(70,70,70);font-size:15.3px;font-family:'Roboto Medium',sans-serif">6</text><text x="477" y="378" style="stroke:none;fill:rgb(70,70,70);font-size:15.3px;font-family:'Roboto Medium',sans-serif">7</text><text x="543" y="378" style="stroke:none;fill:rgb(70,70,70);font-size:15.3px;font-family:'Roboto Medium',sans-serif">8</text><path d="M 66 351
L 111 351
L 111 355
L 66 355
L 66 351" style="stroke:none;fill:rgb(84,112,198)"/><path d="M 131 332
L 176 332
L 176 355
L 131 355
L 131 332" style="stroke:none;fill:rgb(84,112,198)"/><path d="M 197 330
L 242 330
L 242 355
L 197 355
L 197 330" style="stroke:none;fill:rgb(84,112,198)"/><path d="M 262 252
L 307 252
L 307 355
L 262 355
L 262 252" style="stroke:none;fill:rgb(84,112,198)"/><path d="M 328 212
L 373 212
L 373 355
L 328 355
L 328 212" style="stroke:none;fill:rgb(84,112,198)"/><path d="M 393 323
L 438 323
L 438 355
L 393 355
L 393 323" style="stroke:none;fill:rgb(84,112,198)"/><path d="M 459 335
L 504 335
L 504 355
L 459 355
L 459 335" style="stroke:none;fill:rgb(84,112,198)"/><path d="M 524 352
L 569 352
L 569 355
L 524 355
L 524 352" style="stroke:none;fill:rgb(84,112,198)"/><path d="M 66 342
L 111 342
L 111 351
L 66 351
L 66 342" style="stroke:none;fill:rgb(145,204,117)"/><path d="M 131 306
L 176 306
L 176 332
L 131 332
L 131 306" style="stroke:none;fill:rgb(145,204,117)"/><path d="M 197 302
L 242 302
L 242 330
L 197 330
L 197 302" style="stroke:none;fill:rgb(145,204,117)"/><path d="M 262 107
L 307 107
L 307 252
L 262 252
L 262 107" style="stroke:none;fill:rgb(145,204,117)"/><path d="M 328 89
L 373 89
L 373 212
L 328 212
L 328 89" style="stroke:none;fill:rgb(145,204,117)"/><path d="M 393 274
L 438 274
L 438 323
L 393 323
L 393 274" style="stroke:none;fill:rgb(145,204,117)"/><path d="M 459 317
L 504 317
L 504 335
L 459 335
L 459 317" style="stroke:none;fill:rgb(145,204,117)"/><path d="M 524 350
L 569 350
L 569 352
L 524 352
L 524 350" style="stroke:none;fill:rgb(145,204,117)"/><path d="M 66 262
L 111 262
L 111 342
L 66 342
L 66 262" style="stroke:none;fill:rgb(250,200,88)"/><path d="M 131 266
L 176 266
L 176 306
L 131 306
L 131 266" style="stroke:none;fill:rgb(250,200,88)"/><path d="M 197 274
L 242 274
L 242 302
L 197 302
L 197 274" style="stroke:none;fill:rgb(250,200,88)"/><path d="M 262 79
L 307 79
L 307 107
L 262 107
L 262 79" style="stroke:none;fill:rgb(250,200,88)"/><path d="M 328 65
L 373 65
L 373 89
L 328 89
L 328 65" style="stroke:none;fill:rgb(250,200,88)"/><path d="M 393 250
L 438 250
L 438 274
L 393 274
L 393 250" style="stroke:none;fill:rgb(250,200,88)"/><path d="M 459 276
L 504 276
L 504 317
L 459 317
L 459 276" style="stroke:none;fill:rgb(250,200,88)"/><path d="M 524 269
L 569 269
L 569 350
L 524 350
L 524 269" style="stroke:none;fill:rgb(250,200,88)"/><path d="M 346 205
A 14 14 330.00 1 1 354 205
L 350 191
Z" style="stroke:none;fill:rgb(84,112,198)"/><path d="M 336 191
Q350,226 364,191
Z" style="stroke:none;fill:rgb(84,112,198)"/><text x="337" y="196" style="stroke:none;fill:rgb(238,238,238);font-size:10.2px;font-family:'Roboto Medium',sans-serif">142.2</text><path d="M 280 100
A 14 14 330.00 1 1 288 100
L 284 86
Z" style="stroke:none;fill:rgb(145,204,117)"/><path d="M 270 86
Q284,121 298,86
Z" style="stroke:none;fill:rgb(145,204,117)"/><text x="271" y="91" style="stroke:none;fill:rgb(70,70,70);font-size:10.2px;font-family:'Roboto Medium',sans-serif">144.6</text><path d="M 542 262
A 14 14 330.00 1 1 550 262
L 546 248
Z" style="stroke:none;fill:rgb(250,200,88)"/><path d="M 532 248
Q546,283 560,248
Z" style="stroke:none;fill:rgb(250,200,88)"/><text x="533" y="253" style="stroke:none;fill:rgb(70,70,70);font-size:12.8px;font-family:'Roboto Medium',sans-serif">80.8</text></svg>