<svg xmlns="http://www.w3.org/2000/svg" xmlns:xlink="http://www.w3.org/1999/xlink" viewBox="0 0 600 400"><path d="M 0 0
L 600 0
L 600 400
L 0 400
L 0 0" style="stroke:none;fill:white"/><path d="M 20 355
L 580 355" style="stroke-width:1;stroke:rgb(110,112,121);fill:none"/><path d="M 20 360
L 20 355" style="stroke-width:1;stroke:rgb(110,112,121);fill:none"/><path d="M 90 360
L 90 355" style="stroke-width:1;stroke:rgb(110,112,121);fill:none"/><path d="M 160 360
L 160 355" style="stroke-width:1;stroke:rgb(110,112,121);fill:none"/><path d="M 230 360
L 230 355" style="stroke-width:1;stroke:rgb(110,112,121);fill:none"/><path d="M 300 360
L 300 355" style="stroke-width:1;stroke:rgb(110,112,121);fill:none"/><path d="M 370 360
L 370 355" style="stroke-width:1;stroke:rgb(110,112,121);fill:none"/><path d="M 440 360
L 440 355" style="stroke-width:1;stroke:rgb(110,112,121);fill:none"/><path d="M 510 360
L 510 355" style="stroke-width:1;stroke:rgb(110,112,121);fill:none"/><path d="M 580 360
L 580 355" style="stroke-width:1;stroke:rgb(110,112,121);fill:none"/><text x="51" y="378" style="stroke:none;fill:rgb(70,70,70);font-size:15.3px;font-family:'Roboto Medium',sans-serif">1</text><text x="121" y="378" style="stroke:none;fill:rgb(70,70,70);font-size:15.3px;font-family:'Roboto Medium',sans-serif">2</text><text x="191" y="378" style="stroke:none;fill:rgb(70,70,70);font-size:15.3px;font-family:'Roboto Medium',sans-serif">3</text><text x="261" y="378" style="stroke:none;fill:rgb(70,70,70);font-size:15.3px;font-family:'Roboto Medium',sans-serif">4</text><text x="331" y="378" style="stroke:none;fill:rgb(70,70,70);font-size:15.3px;font-family:'Roboto Medium',sans-serif">5</text><text x="401" y="378" style="stroke:none;fill:rgb(70,70,70);font-size:15.3px;font-family:'Roboto Medium',sans-serif">6</text><text x="471" y="378" style="stroke:none;fill:rgb(70,70,70);font-size:15.3px;font-family:'Roboto Medium',sans-serif">7</text><text x="541" y="378" style="stroke:none;fill:rgb(70,70,70);font-size:15.3px;font-family:'Roboto Medium',sans-serif">8</text><path d="M 30 350
L 80 350
L 80 355
L 30 355
L 30 350" style="stroke:none;fill:rgb(84,112,198)"/><path d="M 100 329
L 150 329
L 150 355
L 100 355
L 100 329" style="stroke:none;fill:rgb(84,112,198)"/><path d="M 170 327
L 220 327
L 220 355
L 170 355
L 170 327" style="stroke:none;fill:rgb(84,112,198)"/><path d="M 240 240
L 290 240
L 290 355
L 240 355
L 240 240" style="stroke:none;fill:rgb(84,112,198)"/><path d="M 310 195
L 360 195
L 360 355
L 310 355
L 310 195" style="stroke:none;fill:rgb(84,112,198)"/><path d="M 380 319
L 430 319
L 430 355
L 380 355
L 380 319" style="stroke:none;fill:rgb(84,112,198)"/><path d="M 450 333
L 500 333
L 500 355
L 450 355
L 450 333" style="stroke:none;fill:rgb(84,112,198)"/><path d="M 520 352
L 570 352
L 570 355
L 520 355
L 520 352" style="stroke:none;fill:rgb(84,112,198)"/><path d="M 30 340
L 80 340
L 80 350
L 30 350
L 30 340" style="stroke:none;fill:rgb(145,204,117)"/><path d="M 100 300
L 150 300
L 150 329
L 100 329
L 100 300" style="stroke:none;fill:rgb(145,204,117)"/><path d="M 170 295
L 220 295
L 220 327
L 170 327
L 170 295" style="stroke:none;fill:rgb(145,204,117)"/><path d="M 240 77
L 290 77
L 290 240
L 240 240
L 240 77" style="stroke:none;fill:rgb(145,204,117)"/><path d="M 310 58
L 360 58
L 360 195
L 310 195
L 310 58" style="stroke:none;fill:rgb(145,204,117)"/><path d="M 380 265
L 430 265
L 430 319
L 380 319
L 380 265" style="stroke:none;fill:rgb(145,204,117)"/><path d="M 450 312
L 500 312
L 500 333
L 450 333
L 450 312" style="stroke:none;fill:rgb(145,204,117)"/><path d="M 520 350
L 570 350
L 570 352
L 520 352
L 520 350" style="stroke:none;fill:rgb(145,204,117)"/><path d="M 30 250
L 80 250
L 80 340
L 30 340
L 30 250" style="stroke:none;fill:rgb(250,200,88)"/><path d="M 100 255
L 150 255
L 150 300
L 100 300
L 100 255" style="stroke:none;fill:rgb(250,200,88)"/><path d="M 170 263
L 220 263
L 220 295
L 170 295
L 170 263" style="stroke:none;fill:rgb(250,200,88)"/><path d="M 240 45
L 290 45
L 290 77
L 240 77
L 240 45" style="stroke:none;fill:rgb(250,200,88)"/><path d="M 310 31
L 360 31
L 360 58
L 310 58
L 310 31" style="stroke:none;fill:rgb(250,200,88)"/><path d="M 380 238
L 430 238
L 430 265
L 380 265
L 380 238" style="stroke:none;fill:rgb(250,200,88)"/><path d="M 450 266
L 500 266
L 500 312
L 450 312
L 450 266" style="stroke:none;fill:rgb(250,200,88)"/><path d="M 520 259
L 570 259
L 570 350
L 520 350
L 520 259" style="stroke:none;fill:rgb(250,200,88)"/><circle cx="23" cy="200" r="3" style="stroke-width:1;stroke:rgb(211,211,211);fill:rgb(211,211,211)"/><path stroke-dasharray="4.0, 2.0" d="M 29 200
L 562 200" style="stroke-width:1;stroke:rgb(211,211,211);fill:rgb(211,211,211)"/><path stroke-dasharray="4.0, 2.0" d="M 562 195
L 578 200
L 562 205
L 567 200
L 562 195" style="stroke-width:1;stroke:rgb(211,211,211);fill:rgb(211,211,211)"/><text x="580" y="204" style="stroke:none;fill:rgb(70,70,70);font-size:12.8px;font-family:'Roboto Medium',sans-serif">137</text><circle cx="23" cy="266" r="3" style="stroke-width:1;stroke:rgb(211,211,211);fill:rgb(211,211,211)"/><path stroke-dasharray="4.0, 2.0" d="M 29 266
L 562 266" style="stroke-width:1;stroke:rgb(211,211,211);fill:rgb(211,211,211)"/><path stroke-dasharray="4.0, 2.0" d="M 562 261
L 578 266
L 562 271
L 567 266
L 562 261" style="stroke-width:1;stroke:rgb(211,211,211);fill:rgb(211,211,211)"/><text x="580" y="270" style="stroke:none;fill:rgb(70,70,70);font-size:12.8px;font-family:'Roboto Medium',sans-serif">79</text><circle cx="23" cy="30" r="3" style="stroke-width:1;stroke:rgb(211,211,211);fill:rgb(211,211,211)"/><path stroke-dasharray="4.0, 2.0" d="M 29 30
L 562 30" style="stroke-width:1;stroke:rgb(211,211,211);fill:rgb(211,211,211)"/><path stroke-dasharray="4.0, 2.0" d="M 562 25
L 578 30
L 562 35
L 567 30
L 562 25" style="stroke-width:1;stroke:rgb(211,211,211);fill:rgb(211,211,211)"/><text x="580" y="34" style="stroke:none;fill:rgb(70,70,70);font-size:12.8px;font-family:'Roboto Medium',sans-serif">288</text></svg>