<svg xmlns="http://www.w3.org/2000/svg" xmlns:xlink="http://www.w3.org/1999/xlink" viewBox="0 0 600 400"><path d="M 0 0
L 600 0
L 600 400
L 0 400
L 0 0" style="stroke:none;fill:white"/><text x="563" y="16" style="stroke:none;fill:rgb(70,70,70);font-size:16px;font-family:'Roboto Medium',sans-serif">200</text><text x="563" y="192" style="stroke:none;fill:rgb(70,70,70);font-size:16px;font-family:'Roboto Medium',sans-serif">100</text><text x="563" y="369" style="stroke:none;fill:rgb(70,70,70);font-size:16px;font-family:'Roboto Medium',sans-serif">0</text><text x="9" y="16" style="stroke:none;fill:rgb(70,70,70);font-size:16px;font-family:'Roboto Medium',sans-serif">2</text><text x="9" y="192" style="stroke:none;fill:rgb(70,70,70);font-size:16px;font-family:'Roboto Medium',sans-serif">1</text><text x="9" y="369" style="stroke:none;fill:rgb(70,70,70);font-size:16px;font-family:'Roboto Medium',sans-serif">0</text><path d="M 25 10
L 553 10" style="stroke-width:1;stroke:rgb(224,230,242);fill:none"/><path d="M 25 187
L 553 187" style="stroke-width:1;stroke:rgb(224,230,242);fill:none"/><path d="M 29 365
L 553 365" style="stroke-width:1;stroke:rgb(110,112,121);fill:none"/><path d="M 29 370
L 29 365" style="stroke-width:1;stroke:rgb(110,112,121);fill:none"/><path d="M 72 370
L 72 365" style="stroke-width:1;stroke:rgb(110,112,121);fill:none"/><path d="M 116 370
L 116 365" style="stroke-width:1;stroke:rgb(110,112,121);fill:none"/><path d="M 160 370
L 160 365" style="stroke-width:1;stroke:rgb(110,112,121);fill:none"/><path d="M 203 370
L 203 365" style="stroke-width:1;stroke:rgb(110,112,121);fill:none"/><path d="M 247 370
L 247 365" style="stroke-width:1;stroke:rgb(110,112,121);fill:none"/><path d="M 291 370
L 291 365" style="stroke-width:1;stroke:rgb(110,112,121);fill:none"/><path d="M 334 370
L 334 365" style="stroke-width:1;stroke:rgb(110,112,121);fill:none"/><path d="M 378 370
L 378 365" style="stroke-width:1;stroke:rgb(110,112,121);fill:none"/><path d="M 422 370
L 422 365" style="stroke-width:1;stroke:rgb(110,112,121);fill:none"/><path d="M 465 370
L 465 365" style="stroke-width:1;stroke:rgb(110,112,121);fill:none"/><path d="M 509 370
L 509 365" style="stroke-width:1;stroke:rgb(110,112,121);fill:none"/><path d="M 553 370
L 553 365" style="stroke-width:1;stroke:rgb(110,112,121);fill:none"/><text x="37" y="388" style="stroke:none;fill:rgb(70,70,70);font-size:16px;font-family:'Roboto Medium',sans-serif">Jan</text><text x="81" y="388" style="stroke:none;fill:rgb(70,70,70);font-size:16px;font-family:'Roboto Medium',sans-serif">Feb</text><text x="124" y="388" style="stroke:none;fill:rgb(70,70,70);font-size:16px;font-family:'Roboto Medium',sans-serif">Mar</text><text x="168" y="388" style="stroke:none;fill:rgb(70,70,70);font-size:16px;font-family:'Roboto Medium',sans-serif">Apr</text><text x="210" y="388" style="stroke:none;fill:rgb(70,70,70);font-size:16px;font-family:'Roboto Medium',sans-serif">May</text><text x="256" y="388" style="stroke:none;fill:rgb(70,70,70);font-size:16px;font-family:'Roboto Medium',sans-serif">Jun</text><text x="301" y="388" style="stroke:none;fill:rgb(70,70,70);font-size:16px;font-family:'Roboto Medium',sans-serif">Jul</text><text x="342" y="388" style="stroke:none;fill:rgb(70,70,70);font-size:16px;font-family:'Roboto Medium',sans-serif">Aug</text><text x="386" y="388" style="stroke:none;fill:rgb(70,70,70);font-size:16px;font-family:'Roboto Medium',sans-serif">Sep</text><text x="431" y="388" style="stroke:none;fill:rgb(70,70,70);font-size:16px;font-family:'Roboto Medium',sans-serif">Oct</text><text x="473" y="388" style="stroke:none;fill:rgb(70,70,70);font-size:16px;font-family:'Roboto Medium',sans-serif">Nov</text><text x="517" y="388" style="stroke:none;fill:rgb(70,70,70);font-size:16px;font-family:'Roboto Medium',sans-serif">Dec</text><path d="M 34 362
L 49 362
L 49 364
L 34 364
L 34 362" style="stroke:none;fill:rgb(84,112,198)"/><path d="M 77 357
L 92 357
L 92 364
L 77 364
L 77 357" style="stroke:none;fill:rgb(84,112,198)"/><path d="M 121 353
L 136 353
L 136 364
L 121 364
L 121 353" style="stroke:none;fill:rgb(84,112,198)"/><path d="M 165 324
L 180 324
L 180 364
L 165 364
L 165 324" style="stroke:none;fill:rgb(84,112,198)"/><path d="M 208 320
L 223 320
L 223 364
L 208 364
L 208 320" style="stroke:none;fill:rgb(84,112,198)"/><path d="M 252 229
L 267 229
L 267 364
L 252 364
L 252 229" style="stroke:none;fill:rgb(84,112,198)"/><path d="M 296 125
L 311 125
L 311 364
L 296 364
L 296 125" style="stroke:none;fill:rgb(84,112,198)"/><path d="M 339 78
L 354 78
L 354 364
L 339 364
L 339 78" style="stroke:none;fill:rgb(84,112,198)"/><path d="M 383 308
L 398 308
L 398 364
L 383 364
L 383 308" style="stroke:none;fill:rgb(84,112,198)"/><path d="M 427 330
L 442 330
L 442 364
L 427 364
L 427 330" style="stroke:none;fill:rgb(84,112,198)"/><path d="M 470 354
L 485 354
L 485 364
L 470 364
L 470 354" style="stroke:none;fill:rgb(84,112,198)"/><path d="M 514 360
L 529 360
L 529 364
L 514 364
L 514 360" style="stroke:none;fill:rgb(84,112,198)"/><path d="M 52 361
L 67 361
L 67 364
L 52 364
L 52 361" style="stroke:none;fill:rgb(145,204,117)"/><path d="M 95 355
L 110 355
L 110 364
L 95 364
L 95 355" style="stroke:none;fill:rgb(145,204,117)"/><path d="M 139 350
L 154 350
L 154 364
L 139 364
L 139 350" style="stroke:none;fill:rgb(145,204,117)"/><path d="M 183 319
L 198 319
L 198 364
L 183 364
L 183 319" style="stroke:none;fill:rgb(145,204,117)"/><path d="M 226 315
L 241 315
L 241 364
L 226 364
L 226 315" style="stroke:none;fill:rgb(145,204,117)"/><path d="M 270 240
L 285 240
L 285 364
L 270 364
L 270 240" style="stroke:none;fill:rgb(145,204,117)"/><path d="M 314 54
L 329 54
L 329 364
L 314 364
L 314 54" style="stroke:none;fill:rgb(145,204,117)"/><path d="M 357 42
L 372 42
L 372 364
L 357 364
L 357 42" style="stroke:none;fill:rgb(145,204,117)"/><path d="M 401 279
L 416 279
L 416 364
L 401 364
L 401 279" style="stroke:none;fill:rgb(145,204,117)"/><path d="M 445 332
L 460 332
L 460 364
L 445 364
L 445 332" style="stroke:none;fill:rgb(145,204,117)"/><path d="M 488 355
L 503 355
L 503 364
L 488 364
L 488 355" style="stroke:none;fill:rgb(145,204,117)"/><path d="M 532 361
L 547 361
L 547 364
L 532 364
L 532 361" style="stroke:none;fill:rgb(145,204,117)"/><text x="37" y="357" style="stroke:none;fill:rgb(70,70,70);font-size:13.3px;font-family:'Roboto Medium',sans-serif">2</text><text x="75" y="352" style="stroke:none;fill:rgb(70,70,70);font-size:13.3px;font-family:'Roboto Medium',sans-serif">4.9</text><text x="124" y="348" style="stroke:none;fill:rgb(70,70,70);font-size:13.3px;font-family:'Roboto Medium',sans-serif">7</text><text x="159" y="319" style="stroke:none;fill:rgb(70,70,70);font-size:13.3px;font-family:'Roboto Medium',sans-serif">23.2</text><text x="202" y="315" style="stroke:none;fill:rgb(70,70,70);font-size:13.3px;font-family:'Roboto Medium',sans-serif">25.6</text><text x="246" y="224" style="stroke:none;fill:rgb(70,70,70);font-size:13.3px;font-family:'Roboto Medium',sans-serif">76.7</text><text x="286" y="120" style="stroke:none;fill:rgb(70,70,70);font-size:13.3px;font-family:'Roboto Medium',sans-serif">135.6</text><text x="329" y="73" style="stroke:none;fill:rgb(70,70,70);font-size:13.3px;font-family:'Roboto Medium',sans-serif">162.2</text><text x="377" y="303" style="stroke:none;fill:rgb(70,70,70);font-size:13.3px;font-family:'Roboto Medium',sans-serif">32.6</text><text x="426" y="325" style="stroke:none;fill:rgb(70,70,70);font-size:13.3px;font-family:'Roboto Medium',sans-serif">20</text><text x="468" y="349" style="stroke:none;fill:rgb(70,70,70);font-size:13.3px;font-family:'Roboto Medium',sans-serif">6.4</text><text x="512" y="355" style="stroke:none;fill:rgb(70,70,70);font-size:13.3px;font-family:'Roboto Medium',sans-serif">3.3</text><text x="50" y="356" style="stroke:none;fill:rgb(70,70,70);font-size:13.3px;font-family:'Roboto Medium',sans-serif">2.6</text><text x="93" y="350" style="stroke:none;fill:rgb(70,70,70);font-size:13.3px;font-family:'Roboto Medium',sans-serif">5.9</text><text x="142" y="345" style="stroke:none;fill:rgb(70,70,70);font-size:13.3px;font-family:'Roboto Medium',sans-serif">9</text><text x="177" y="314" style="stroke:none;fill:rgb(70,70,70);font-size:13.3px;font-family:'Roboto Medium',sans-serif">26.4</text><text x="220" y="310" style="stroke:none;fill:rgb(70,70,70);font-size:13.3px;font-family:'Roboto Medium',sans-serif">28.7</text><text x="264" y="235" style="stroke:none;fill:rgb(70,70,70);font-size:13.3px;font-family:'Roboto Medium',sans-serif">70.7</text><text x="304" y="49" style="stroke:none;fill:rgb(70,70,70);font-size:13.3px;font-family:'Roboto Medium',sans-serif">175.6</text><text x="347" y="37" style="stroke:none;fill:rgb(70,70,70);font-size:13.3px;font-family:'Roboto Medium',sans-serif">182.2</text><text x="395" y="274" style="stroke:none;fill:rgb(70,70,70);font-size:13.3px;font-family:'Roboto Medium',sans-serif">48.7</text><text x="439" y="327" style="stroke:none;fill:rgb(70,70,70);font-size:13.3px;font-family:'Roboto Medium',sans-serif">18.8</text><text x="491" y="350" style="stroke:none;fill:rgb(70,70,70);font-size:13.3px;font-family:'Roboto Medium',sans-serif">6</text><text x="530" y="356" style="stroke:none;fill:rgb(70,70,70);font-size:13.3px;font-family:'Roboto Medium',sans-serif">2.3</text></svg>