<svg xmlns="http://www.w3.org/2000/svg" xmlns:xlink="http://www.w3.org/1999/xlink" viewBox="0 0 600 400"><path d="M 0 0
L 600 0
L 600 400
L 0 400
L 0 0" style="stroke:none;fill:white"/><text x="286" y="26" style="stroke:none;fill:rgb(70,70,70);font-size:15.3px;font-family:'Roboto Medium',sans-serif">Line</text><path d="M 490 19
L 520 19" style="stroke-width:3;stroke:rgb(84,112,198);fill:none"/><circle cx="505" cy="19" r="5" style="stroke-width:3;stroke:rgb(84,112,198);fill:rgb(84,112,198)"/><text x="522" y="25" style="stroke:none;fill:rgb(70,70,70);font-size:15.3px;font-family:'Roboto Medium',sans-serif">1</text><path d="M 551 19
L 581 19" style="stroke-width:3;stroke:rgb(145,204,117);fill:none"/><circle cx="566" cy="19" r="5" style="stroke-width:3;stroke:rgb(145,204,117);fill:rgb(145,204,117)"/><text x="583" y="25" style="stroke:none;fill:rgb(70,70,70);font-size:15.3px;font-family:'Roboto Medium',sans-serif">2</text><text x="9" y="52" style="stroke:none;fill:rgb(70,70,70);font-size:15.3px;font-family:'Roboto Medium',sans-serif">1.44k</text><text x="9" y="87" style="stroke:none;fill:rgb(70,70,70);font-size:15.3px;font-family:'Roboto Medium',sans-serif">1.28k</text><text x="9" y="122" style="stroke:none;fill:rgb(70,70,70);font-size:15.3px;font-family:'Roboto Medium',sans-serif">1.12k</text><text x="21" y="157" style="stroke:none;fill:rgb(70,70,70);font-size:15.3px;font-family:'Roboto Medium',sans-serif">960</text><text x="21" y="192" style="stroke:none;fill:rgb(70,70,70);font-size:15.3px;font-family:'Roboto Medium',sans-serif">800</text><text x="21" y="228" style="stroke:none;fill:rgb(70,70,70);font-size:15.3px;font-family:'Roboto Medium',sans-serif">640</text><text x="21" y="263" style="stroke:none;fill:rgb(70,70,70);font-size:15.3px;font-family:'Roboto Medium',sans-serif">480</text><text x="21" y="298" style="stroke:none;fill:rgb(70,70,70);font-size:15.3px;font-family:'Roboto Medium',sans-serif">320</text><text x="21" y="333" style="stroke:none;fill:rgb(70,70,70);font-size:15.3px;font-family:'Roboto Medium',sans-serif">160</text><text x="39" y="369" style="stroke:none;fill:rgb(70,70,70);font-size:15.3px;font-family:'Roboto Medium',sans-serif">0</text><path d="M 54 46
L 590 46" style="stroke-width:1;stroke:rgb(224,230,242);fill:none"/><path d="M 54 81
L 590 81" style="stroke-width:1;stroke:rgb(224,230,242);fill:none"/><path d="M 54 116
L 590 116" style="stroke-width:1;stroke:rgb(224,230,242);fill:none"/><path d="M 54 152
L 590 152" style="stroke-width:1;stroke:rgb(224,230,242);fill:none"/><path d="M 54 187
L 590 187" style="stroke-width:1;stroke:rgb(224,230,242);fill:none"/><path d="M 54 223
L 590 223" style="stroke-width:1;stroke:rgb(224,230,242);fill:none"/><path d="M 54 258
L 590 258" style="stroke-width:1;stroke:rgb(224,230,242);fill:none"/><path d="M 54 294
L 590 294" style="stroke-width:1;stroke:rgb(224,230,242);fill:none"/><path d="M 54 329
L 590 329" style="stroke-width:1;stroke:rgb(224,230,242);fill:none"/><path d="M 58 365
L 590 365" style="stroke-width:1;stroke:rgb(110,112,121);fill:none"/><path d="M 58 370
L 58 365" style="stroke-width:1;stroke:rgb(110,112,121);fill:none"/><path d="M 134 370
L 134 365" style="stroke-width:1;stroke:rgb(110,112,121);fill:none"/><path d="M 210 370
L 210 365" style="stroke-width:1;stroke:rgb(110,112,121);fill:none"/><path d="M 286 370
L 286 365" style="stroke-width:1;stroke:rgb(110,112,121);fill:none"/><path d="M 362 370
L 362 365" style="stroke-width:1;stroke:rgb(110,112,121);fill:none"/><path d="M 438 370
L 438 365" style="stroke-width:1;stroke:rgb(110,112,121);fill:none"/><path d="M 514 370
L 514 365" style="stroke-width:1;stroke:rgb(110,112,121);fill:none"/><path d="M 590 370
L 590 365" style="stroke-width:1;stroke:rgb(110,112,121);fill:none"/><text x="91" y="388" style="stroke:none;fill:rgb(70,70,70);font-size:15.3px;font-family:'Roboto Medium',sans-serif">A</text><text x="167" y="388" style="stroke:none;fill:rgb(70,70,70);font-size:15.3px;font-family:'Roboto Medium',sans-serif">B</text><text x="243" y="388" style="stroke:none;fill:rgb(70,70,70);font-size:15.3px;font-family:'Roboto Medium',sans-serif">C</text><text x="319" y="388" style="stroke:none;fill:rgb(70,70,70);font-size:15.3px;font-family:'Roboto Medium',sans-serif">D</text><text x="396" y="388" style="stroke:none;fill:rgb(70,70,70);font-size:15.3px;font-family:'Roboto Medium',sans-serif">E</text><text x="472" y="388" style="stroke:none;fill:rgb(70,70,70);font-size:15.3px;font-family:'Roboto Medium',sans-serif">F</text><text x="547" y="388" style="stroke:none;fill:rgb(70,70,70);font-size:15.3px;font-family:'Roboto Medium',sans-serif">G</text><path d="M 96 339
L 172 336
L 248 343
L 324 336
L 400 346
L 476 315
L 552 319" style="stroke-width:2;stroke:rgb(84,112,198);fill:none"/><circle cx="96" cy="339" r="2" style="stroke-width:1;stroke:rgb(84,112,198);fill:white"/><circle cx="172" cy="336" r="2" style="stroke-width:1;stroke:rgb(84,112,198);fill:white"/><circle cx="248" cy="343" r="2" style="stroke-width:1;stroke:rgb(84,112,198);fill:white"/><circle cx="324" cy="336" r="2" style="stroke-width:1;stroke:rgb(84,112,198);fill:white"/><circle cx="400" cy="346" r="2" style="stroke-width:1;stroke:rgb(84,112,198);fill:white"/><circle cx="476" cy="315" r="2" style="stroke-width:1;stroke:rgb(84,112,198);fill:white"/><circle cx="552" cy="319" r="2" style="stroke-width:1;stroke:rgb(84,112,198);fill:white"/><path d="M 96 184
L 172 159
L 248 166
L 324 159
L 400 80
L 476 71
L 552 73" style="stroke-width:2;stroke:rgb(145,204,117);fill:none"/><circle cx="96" cy="184" r="2" style="stroke-width:1;stroke:rgb(145,204,117);fill:white"/><circle cx="172" cy="159" r="2" style="stroke-width:1;stroke:rgb(145,204,117);fill:white"/><circle cx="248" cy="166" r="2" style="stroke-width:1;stroke:rgb(145,204,117);fill:white"/><circle cx="324" cy="159" r="2" style="stroke-width:1;stroke:rgb(145,204,117);fill:white"/><circle cx="400" cy="80" r="2" style="stroke-width:1;stroke:rgb(145,204,117);fill:white"/><circle cx="476" cy="71" r="2" style="stroke-width:1;stroke:rgb(145,204,117);fill:white"/><circle cx="552" cy="73" r="2" style="stroke-width:1;stroke:rgb(145,204,117);fill:white"/></svg>