<svg xmlns="http://www.w3.org/2000/svg" xmlns:xlink="http://www.w3.org/1999/xlink" viewBox="0 0 600 400"><path d="M 0 0
L 600 0
L 600 400
L 0 400
L 0 0" style="stroke:none;fill:white"/><text x="559" y="26" style="stroke:none;fill:rgb(70,70,70);font-size:16px;font-family:'Roboto Medium',sans-serif">Line</text><path d="M 249 19
L 279 19" style="stroke-width:3;stroke:rgb(84,112,198);fill:none"/><circle cx="264" cy="19" r="5" style="stroke-width:3;stroke:rgb(84,112,198);fill:rgb(84,112,198)"/><text x="281" y="25" style="stroke:none;fill:rgb(70,70,70);font-size:16px;font-family:'Roboto Medium',sans-serif">1</text><path d="M 311 19
L 341 19" style="stroke-width:3;stroke:rgb(145,204,117);fill:none"/><circle cx="326" cy="19" r="5" style="stroke-width:3;stroke:rgb(145,204,117);fill:rgb(145,204,117)"/><text x="343" y="25" style="stroke:none;fill:rgb(70,70,70);font-size:16px;font-family:'Roboto Medium',sans-serif">2</text><text x="9" y="52" style="stroke:none;fill:rgb(70,70,70);font-size:16px;font-family:'Roboto Medium',sans-serif">1.6k</text><text x="9" y="91" style="stroke:none;fill:rgb(70,70,70);font-size:16px;font-family:'Roboto Medium',sans-serif">1.4k</text><text x="9" y="131" style="stroke:none;fill:rgb(70,70,70);font-size:16px;font-family:'Roboto Medium',sans-serif">1.2k</text><text x="22" y="170" style="stroke:none;fill:rgb(70,70,70);font-size:16px;font-family:'Roboto Medium',sans-serif">1k</text><text x="12" y="210" style="stroke:none;fill:rgb(70,70,70);font-size:16px;font-family:'Roboto Medium',sans-serif">800</text><text x="12" y="250" style="stroke:none;fill:rgb(70,70,70);font-size:16px;font-family:'Roboto Medium',sans-serif">600</text><text x="12" y="289" style="stroke:none;fill:rgb(70,70,70);font-size:16px;font-family:'Roboto Medium',sans-serif">400</text><text x="12" y="329" style="stroke:none;fill:rgb(70,70,70);font-size:16px;font-family:'Roboto Medium',sans-serif">200</text><text x="30" y="369" style="stroke:none;fill:rgb(70,70,70);font-size:16px;font-family:'Roboto Medium',sans-serif">0</text><path d="M 46 46
L 590 46" style="stroke-width:1;stroke:rgb(224,230,242);fill:none"/><path d="M 46 85
L 590 85" style="stroke-width:1;stroke:rgb(224,230,242);fill:none"/><path d="M 46 125
L 590 125" style="stroke-width:1;stroke:rgb(224,230,242);fill:none"/><path d="M 46 165
L 590 165" style="stroke-width:1;stroke:rgb(224,230,242);fill:none"/><path d="M 46 205
L 590 205" style="stroke-width:1;stroke:rgb(224,230,242);fill:none"/><path d="M 46 245
L 590 245" style="stroke-width:1;stroke:rgb(224,230,242);fill:none"/><path d="M 46 285
L 590 285" style="stroke-width:1;stroke:rgb(224,230,242);fill:none"/><path d="M 46 325
L 590 325" style="stroke-width:1;stroke:rgb(224,230,242);fill:none"/><path d="M 50 365
L 590 365" style="stroke-width:1;stroke:rgb(110,112,121);fill:none"/><path d="M 50 370
L 50 365" style="stroke-width:1;stroke:rgb(110,112,121);fill:none"/><path d="M 127 370
L 127 365" style="stroke-width:1;stroke:rgb(110,112,121);fill:none"/><path d="M 204 370
L 204 365" style="stroke-width:1;stroke:rgb(110,112,121);fill:none"/><path d="M 281 370
L 281 365" style="stroke-width:1;stroke:rgb(110,112,121);fill:none"/><path d="M 358 370
L 358 365" style="stroke-width:1;stroke:rgb(110,112,121);fill:none"/><path d="M 435 370
L 435 365" style="stroke-width:1;stroke:rgb(110,112,121);fill:none"/><path d="M 512 370
L 512 365" style="stroke-width:1;stroke:rgb(110,112,121);fill:none"/><path d="M 590 370
L 590 365" style="stroke-width:1;stroke:rgb(110,112,121);fill:none"/><text x="83" y="388" style="stroke:none;fill:rgb(70,70,70);font-size:16px;font-family:'Roboto Medium',sans-serif">A</text><text x="160" y="388" style="stroke:none;fill:rgb(70,70,70);font-size:16px;font-family:'Roboto Medium',sans-serif">B</text><text x="237" y="388" style="stroke:none;fill:rgb(70,70,70);font-size:16px;font-family:'Roboto Medium',sans-serif">C</text><text x="314" y="388" style="stroke:none;fill:rgb(70,70,70);font-size:16px;font-family:'Roboto Medium',sans-serif">D</text><text x="391" y="388" style="stroke:none;fill:rgb(70,70,70);font-size:16px;font-family:'Roboto Medium',sans-serif">E</text><text x="469" y="388" style="stroke:none;fill:rgb(70,70,70);font-size:16px;font-family:'Roboto Medium',sans-serif">F</text><text x="546" y="388" style="stroke:none;fill:rgb(70,70,70);font-size:16px;font-family:'Roboto Medium',sans-serif">G</text><path d="M 88 342
L 165 339
L 242 345
L 319 339
L 396 348
L 473 320
L 551 324" style="stroke-width:2;stroke:rgb(84,112,198);fill:none"/><circle cx="88" cy="342" r="2.4" style="stroke-width:1;stroke:rgb(84,112,198);fill:white"/><circle cx="165" cy="339" r="2.4" style="stroke-width:1;stroke:rgb(84,112,198);fill:white"/><circle cx="242" cy="345" r="2.4" style="stroke-width:1;stroke:rgb(84,112,198);fill:white"/><circle cx="319" cy="339" r="2.4" style="stroke-width:1;stroke:rgb(84,112,198);fill:white"/><circle cx="396" cy="348" r="2.4" style="stroke-width:1;stroke:rgb(84,112,198);fill:white"/><circle cx="473" cy="320" r="2.4" style="stroke-width:1;stroke:rgb(84,112,198);fill:white"/><circle cx="551" cy="324" r="2.4" style="stroke-width:1;stroke:rgb(84,112,198);fill:white"/><path d="M 88 202
L 165 180
L 242 186
L 319 179
L 396 108
L 473 100
L 551 102" style="stroke-width:2;stroke:rgb(145,204,117);fill:none"/><circle cx="88" cy="202" r="2.4" style="stroke-width:1;stroke:rgb(145,204,117);fill:white"/><circle cx="165" cy="180" r="2.4" style="stroke-width:1;stroke:rgb(145,204,117);fill:white"/><circle cx="242" cy="186" r="2.4" style="stroke-width:1;stroke:rgb(145,204,117);fill:white"/><circle cx="319" cy="179" r="2.4" style="stroke-width:1;stroke:rgb(145,204,117);fill:white"/><circle cx="396" cy="108" r="2.4" style="stroke-width:1;stroke:rgb(145,204,117);fill:white"/><circle cx="473" cy="100" r="2.4" style="stroke-width:1;stroke:rgb(145,204,117);fill:white"/><circle cx="551" cy="102" r="2.4" style="stroke-width:1;stroke:rgb(145,204,117);fill:white"/></svg>