<svg xmlns="http://www.w3.org/2000/svg" xmlns:xlink="http://www.w3.org/1999/xlink" viewBox="0 0 600 400"><path d="M 0 0
L 600 0
L 600 400
L 0 400
L 0 0" style="stroke:none;fill:white"/><path d="M 10 365
L 590 365" style="stroke-width:1;stroke:rgb(110,112,121);fill:none"/><path d="M 10 370
L 10 365" style="stroke-width:1;stroke:rgb(110,112,121);fill:none"/><path d="M 92 370
L 92 365" style="stroke-width:1;stroke:rgb(110,112,121);fill:none"/><path d="M 175 370
L 175 365" style="stroke-width:1;stroke:rgb(110,112,121);fill:none"/><path d="M 258 370
L 258 365" style="stroke-width:1;stroke:rgb(110,112,121);fill:none"/><path d="M 341 370
L 341 365" style="stroke-width:1;stroke:rgb(110,112,121);fill:none"/><path d="M 424 370
L 424 365" style="stroke-width:1;stroke:rgb(110,112,121);fill:none"/><path d="M 507 370
L 507 365" style="stroke-width:1;stroke:rgb(110,112,121);fill:none"/><path d="M 590 370
L 590 365" style="stroke-width:1;stroke:rgb(110,112,121);fill:none"/><text x="36" y="388" style="stroke:none;fill:rgb(70,70,70);font-size:15.3px;font-family:'Roboto Medium',sans-serif">Mon</text><text x="120" y="388" style="stroke:none;fill:rgb(70,70,70);font-size:15.3px;font-family:'Roboto Medium',sans-serif">Tue</text><text x="201" y="388" style="stroke:none;fill:rgb(70,70,70);font-size:15.3px;font-family:'Roboto Medium',sans-serif">Wed</text><text x="286" y="388" style="stroke:none;fill:rgb(70,70,70);font-size:15.3px;font-family:'Roboto Medium',sans-serif">Thu</text><text x="373" y="388" style="stroke:none;fill:rgb(70,70,70);font-size:15.3px;font-family:'Roboto Medium',sans-serif">Fri</text><text x="454" y="388" style="stroke:none;fill:rgb(70,70,70);font-size:15.3px;font-family:'Roboto Medium',sans-serif">Sat</text><text x="535" y="388" style="stroke:none;fill:rgb(70,70,70);font-size:15.3px;font-family:'Roboto Medium',sans-serif">Sun</text><path d="M 51 336
L 133 333
L 216 341
L 299 332
L 382 343
L 465 309
L 548 314
L 548 365
L 51 365
L 51 336" style="stroke:none;fill:rgba(84,112,198,0.4)"/><path d="M 51 336
L 133 333
L 216 341
L 299 332
L 382 343
L 465 309
L 548 314" style="stroke-width:2;stroke:rgb(84,112,198);fill:none"/><path d="M 51 311
L 133 321
L 216 318
L 299 308
L 382 294
L 465 284
L 548 289
L 548 365
L 51 365
L 51 311" style="stroke:none;fill:rgba(145,204,117,0.4)"/><path d="M 51 311
L 133 321
L 216 318
L 299 308
L 382 294
L 465 284
L 548 289" style="stroke-width:2;stroke:rgb(145,204,117);fill:none"/><path d="M 51 329
L 133 308
L 216 316
L 299 328
L 382 319
L 465 284
L 548 264
L 548 365
L 51 365
L 51 329" style="stroke:none;fill:rgba(250,200,88,0.4)"/><path d="M 51 329
L 133 308
L 216 316
L 299 328
L 382 319
L 465 284
L 548 264" style="stroke-width:2;stroke:rgb(250,200,88);fill:none"/><path d="M 51 287
L 133 284
L 216 291
L 299 283
L 382 269
L 465 284
L 548 287
L 548 365
L 51 365
L 51 287" style="stroke:none;fill:rgba(238,102,102,0.4)"/><path d="M 51 287
L 133 284
L 216 291
L 299 283
L 382 269
L 465 284
L 548 287" style="stroke-width:2;stroke:rgb(238,102,102);fill:none"/><path d="M 51 163
L 133 136
L 216 143
L 299 135
L 382 47
L 465 38
L 548 40
L 548 365
L 51 365
L 51 163" style="stroke:none;fill:rgba(115,192,222,0.4)"/><path d="M 51 163
L 133 136
L 216 143
L 299 135
L 382 47
L 465 38
L 548 40" style="stroke-width:2;stroke:rgb(115,192,222);fill:none"/></svg>