<svg xmlns="http://www.w3.org/2000/svg" xmlns:xlink="http://www.w3.org/1999/xlink" viewBox="0 0 800 600"><path d="M 0 0
L 800 0
L 800 600
L 0 600
L 0 0" style="stroke:none;fill:white"/><text x="30" y="16" style="stroke:none;fill:rgb(70,70,70);font-size:15.3px;font-family:'Roboto Medium',sans-serif">116</text><text x="9" y="77" style="stroke:none;fill:rgb(70,70,70);font-size:15.3px;font-family:'Roboto Medium',sans-serif">113.67</text><text x="9" y="138" style="stroke:none;fill:rgb(70,70,70);font-size:15.3px;font-family:'Roboto Medium',sans-serif">111.33</text><text x="30" y="200" style="stroke:none;fill:rgb(70,70,70);font-size:15.3px;font-family:'Roboto Medium',sans-serif">109</text><text x="9" y="261" style="stroke:none;fill:rgb(70,70,70);font-size:15.3px;font-family:'Roboto Medium',sans-serif">106.67</text><text x="9" y="323" style="stroke:none;fill:rgb(70,70,70);font-size:15.3px;font-family:'Roboto Medium',sans-serif">104.33</text><text x="30" y="384" style="stroke:none;fill:rgb(70,70,70);font-size:15.3px;font-family:'Roboto Medium',sans-serif">102</text><text x="17" y="446" style="stroke:none;fill:rgb(70,70,70);font-size:15.3px;font-family:'Roboto Medium',sans-serif">99.67</text><text x="17" y="507" style="stroke:none;fill:rgb(70,70,70);font-size:15.3px;font-family:'Roboto Medium',sans-serif">97.33</text><text x="39" y="569" style="stroke:none;fill:rgb(70,70,70);font-size:15.3px;font-family:'Roboto Medium',sans-serif">95</text><path d="M 63 10
L 790 10" style="stroke-width:1;stroke:rgb(224,230,242);fill:none"/><path d="M 63 71
L 790 71" style="stroke-width:1;stroke:rgb(224,230,242);fill:none"/><path d="M 63 133
L 790 133" style="stroke-width:1;stroke:rgb(224,230,242);fill:none"/><path d="M 63 195
L 790 195" style="stroke-width:1;stroke:rgb(224,230,242);fill:none"/><path d="M 63 256
L 790 256" style="stroke-width:1;stroke:rgb(224,230,242);fill:none"/><path d="M 63 318
L 790 318" style="stroke-width:1;stroke:rgb(224,230,242);fill:none"/><path d="M 63 380
L 790 380" style="stroke-width:1;stroke:rgb(224,230,242);fill:none"/><path d="M 63 441
L 790 441" style="stroke-width:1;stroke:rgb(224,230,242);fill:none"/><path d="M 63 503
L 790 503" style="stroke-width:1;stroke:rgb(224,230,242);fill:none"/><path d="M 67 565
L 790 565" style="stroke-width:1;stroke:rgb(110,112,121);fill:none"/><path d="M 67 570
L 67 565" style="stroke-width:1;stroke:rgb(110,112,121);fill:none"/><path d="M 247 570
L 247 565" style="stroke-width:1;stroke:rgb(110,112,121);fill:none"/><path d="M 428 570
L 428 565" style="stroke-width:1;stroke:rgb(110,112,121);fill:none"/><path d="M 609 570
L 609 565" style="stroke-width:1;stroke:rgb(110,112,121);fill:none"/><path d="M 790 570
L 790 565" style="stroke-width:1;stroke:rgb(110,112,121);fill:none"/><text x="153" y="588" style="stroke:none;fill:rgb(70,70,70);font-size:15.3px;font-family:'Roboto Medium',sans-serif">1</text><text x="333" y="588" style="stroke:none;fill:rgb(70,70,70);font-size:15.3px;font-family:'Roboto Medium',sans-serif">2</text><text x="514" y="588" style="stroke:none;fill:rgb(70,70,70);font-size:15.3px;font-family:'Roboto Medium',sans-serif">3</text><text x="695" y="588" style="stroke:none;fill:rgb(70,70,70);font-size:15.3px;font-family:'Roboto Medium',sans-serif">4</text><path d="M 157 169
L 157 301" style="stroke-width:1;stroke:rgb(34,197,94);fill:none"/><path d="M 157 433
L 157 565" style="stroke-width:1;stroke:rgb(34,197,94);fill:none"/><path d="M 121 169
L 193 169" style="stroke-width:1;stroke:rgb(34,197,94);fill:none"/><path d="M 121 565
L 193 565" style="stroke-width:1;stroke:rgb(34,197,94);fill:none"/><path d="M 85 301
L 229 301
L 229 433
L 85 433
L 85 301" style="stroke:none;fill:rgb(34,197,94)"/><path d="M 337 116
L 337 169" style="stroke-width:1;stroke:rgb(34,197,94);fill:none"/><path d="M 337 275
L 337 301" style="stroke-width:1;stroke:rgb(34,197,94);fill:none"/><path d="M 301 116
L 373 116" style="stroke-width:1;stroke:rgb(34,197,94);fill:none"/><path d="M 301 301
L 373 301" style="stroke-width:1;stroke:rgb(34,197,94);fill:none"/><path d="M 265 169
L 409 169
L 409 275
L 265 275
L 265 169" style="stroke:none;fill:rgb(34,197,94)"/><path d="M 518 37
L 518 63" style="stroke-width:1;stroke:rgb(239,68,68);fill:none"/><path d="M 518 328
L 518 354" style="stroke-width:1;stroke:rgb(239,68,68);fill:none"/><path d="M 482 37
L 554 37" style="stroke-width:1;stroke:rgb(239,68,68);fill:none"/><path d="M 482 354
L 554 354" style="stroke-width:1;stroke:rgb(239,68,68);fill:none"/><path d="M 446 63
L 590 63
L 590 328
L 446 328
L 446 63" style="stroke:none;fill:rgb(239,68,68)"/><path d="M 699 222
L 699 328" style="stroke-width:1;stroke:rgb(239,68,68);fill:none"/><path d="M 699 380
L 699 433" style="stroke-width:1;stroke:rgb(239,68,68);fill:none"/><path d="M 663 222
L 735 222" style="stroke-width:1;stroke:rgb(239,68,68);fill:none"/><path d="M 663 433
L 735 433" style="stroke-width:1;stroke:rgb(239,68,68);fill:none"/><path d="M 627 328
L 771 328
L 771 380
L 627 380
L 627 328" style="stroke:none;fill:rgb(239,68,68)"/><path d="M 523 315
L 618 315
L 618 315
A 4 4 90.00 0 1 622 319
L 622 332
L 622 332
A 4 4 90.00 0 1 618 336
L 523 336
L 523 336
A 4 4 90.00 0 1 519 332
L 519 319
L 519 319
A 4 4 90.00 0 1 523 315
Z" style="stroke-width:1.2;stroke:rgb(239,68,68);fill:rgba(255,255,255,0.7)"/><text x="523" y="332" style="stroke:none;fill:rgb(151,12,12);font-size:12.8px;font-family:'Roboto Medium',sans-serif">V Bear Engulfing</text></svg>