<svg xmlns="http://www.w3.org/2000/svg" xmlns:xlink="http://www.w3.org/1999/xlink" viewBox="0 0 600 400"><path d="M 0 0
L 600 0
L 600 400
L 0 400
L 0 0" style="stroke:none;fill:white"/><path d="M 38 20
L 38 355" style="stroke-width:1;stroke:rgb(110,112,121);fill:none"/><path d="M 33 20
L 38 20" style="stroke-width:1;stroke:rgb(110,112,121);fill:none"/><path d="M 33 103
L 38 103" style="stroke-width:1;stroke:rgb(110,112,121);fill:none"/><path d="M 33 187
L 38 187" style="stroke-width:1;stroke:rgb(110,112,121);fill:none"/><path d="M 33 271
L 38 271" style="stroke-width:1;stroke:rgb(110,112,121);fill:none"/><path d="M 33 355
L 38 355" style="stroke-width:1;stroke:rgb(110,112,121);fill:none"/><text x="19" y="67" style="stroke:none;fill:rgb(70,70,70);font-size:15.3px;font-family:'Roboto Medium',sans-serif">3</text><text x="19" y="150" style="stroke:none;fill:rgb(70,70,70);font-size:15.3px;font-family:'Roboto Medium',sans-serif">2</text><text x="19" y="233" style="stroke:none;fill:rgb(70,70,70);font-size:15.3px;font-family:'Roboto Medium',sans-serif">1</text><text x="19" y="317" style="stroke:none;fill:rgb(70,70,70);font-size:15.3px;font-family:'Roboto Medium',sans-serif">0</text><path d="M 39 355
L 580 355" style="stroke-width:1;stroke:rgb(110,112,121);fill:none"/><path d="M 39 360
L 39 355" style="stroke-width:1;stroke:rgb(110,112,121);fill:none"/><path d="M 219 360
L 219 355" style="stroke-width:1;stroke:rgb(110,112,121);fill:none"/><path d="M 399 360
L 399 355" style="stroke-width:1;stroke:rgb(110,112,121);fill:none"/><path d="M 580 360
L 580 355" style="stroke-width:1;stroke:rgb(110,112,121);fill:none"/><text x="125" y="378" style="stroke:none;fill:rgb(70,70,70);font-size:15.3px;font-family:'Roboto Medium',sans-serif">0</text><text x="305" y="378" style="stroke:none;fill:rgb(70,70,70);font-size:15.3px;font-family:'Roboto Medium',sans-serif">1</text><text x="485" y="378" style="stroke:none;fill:rgb(70,70,70);font-size:15.3px;font-family:'Roboto Medium',sans-serif">2</text><path d="M 40 21
L 219 21
L 219 132
L 40 132
L 40 21" style="stroke:none;fill:rgb(227,232,248)"/><path d="M 219 21
L 398 21
L 398 132
L 219 132
L 219 21" style="stroke:none;fill:rgb(219,226,245)"/><path d="M 398 21
L 577 21
L 577 132
L 398 132
L 398 21" style="stroke:none;fill:rgb(211,219,243)"/><path d="M 40 132
L 219 132
L 219 243
L 40 243
L 40 132" style="stroke:none;fill:rgb(203,213,241)"/><path d="M 219 132
L 398 132
L 398 243
L 219 243
L 219 132" style="stroke:none;fill:rgb(195,206,239)"/><path d="M 398 132
L 577 132
L 577 243
L 398 243
L 398 132" style="stroke:none;fill:rgb(188,200,236)"/><path d="M 40 243
L 219 243
L 219 354
L 40 354
L 40 243" style="stroke:none;fill:rgb(180,193,234)"/><path d="M 219 243
L 398 243
L 398 354
L 219 354
L 219 243" style="stroke:none;fill:rgb(172,187,231)"/><path d="M 398 243
L 577 243
L 577 354
L 398 354
L 398 243" style="stroke:none;fill:rgb(164,180,229)"/></svg>