<svg xmlns="http://www.w3.org/2000/svg" xmlns:xlink="http://www.w3.org/1999/xlink" viewBox="0 0 600 400"><path d="M 20 20
L 580 20
L 580 380
L 20 380
L 20 20" style="stroke:none;fill:white"/><path d="M 300 200
L 440.45 87.42
A 180 180 0 0 1 476.01 162.29
L 300 200
Z" style="stroke:none;fill:rgb(250,200,88)"/><path d="M 300 200
L 368.55 33.56
A 180 180 0 0 1 440.45 87.42
L 300 200
Z" style="stroke:none;fill:rgb(145,204,117)"/><path d="M 300 200
L 300 20
A 180 180 0 0 1 368.55 33.56
L 300 200
Z" style="stroke:none;fill:rgb(84,112,198)"/><path d="M 300 200
L 476.01 162.29
A 180 180 0 0 1 475.05 241.91
L 300 200
Z" style="stroke:none;fill:rgb(238,102,102)"/><path d="M 300 200
L 475.05 241.91
A 180 180 0 0 1 443.64 308.48
L 300 200
Z" style="stroke:none;fill:rgb(115,192,222)"/><path d="M 300 200
L 443.64 308.48
A 180 180 0 0 1 327.58 377.87
L 300 200
Z" style="stroke:none;fill:rgb(59,162,114)"/><path d="M 300 200
L 327.58 377.87
A 180 180 0 0 1 121.95 226.44
L 300 200
Z" style="stroke:none;fill:rgb(252,132,82)"/><path d="M 300 200
L 121.95 226.44
A 180 180 0 0 1 128.13 146.51
L 300 200
Z" style="stroke:none;fill:rgb(154,96,180)"/><path d="M 300 200
L 128.13 146.51
A 180 180 0 0 1 221.46 38.04
L 300 200
Z" style="stroke:none;fill:rgb(234,124,204)"/><path d="M 300 200
L 221.46 38.04
A 180 180 0 0 1 300 20
L 300 200
Z" style="stroke:none;fill:rgb(124,142,199)"/><circle cx="300" cy="200" r="108" style="stroke:none;fill:white"/><path d="M 341 101
L 344 106" style="stroke-width:2;stroke:rgb(84,112,198);fill:none"/><text x="259" y="120" style="stroke:none;fill:rgb(70,70,70);font-size:13.3px;font-family:'Roboto Medium',sans-serif">Cyprus: 6.21%</text><path d="M 361 112
L 355 120" style="stroke-width:2;stroke:rgb(145,204,117);fill:none"/><text x="258" y="134" style="stroke:none;fill:rgb(70,70,70);font-size:13.3px;font-family:'Roboto Medium',sans-serif">Denmark: 8.02%</text><path d="M 393 147
L 378 155" style="stroke-width:2;stroke:rgb(250,200,88);fill:none"/><text x="290" y="162" style="stroke:none;fill:rgb(70,70,70);font-size:13.3px;font-family:'Roboto Medium',sans-serif">Estonia: 7.39%</text><path d="M 407 193
L 386 194" style="stroke-width:2;stroke:rgb(238,102,102);fill:none"/><text x="299" y="201" style="stroke:none;fill:rgb(70,70,70);font-size:13.3px;font-family:'Roboto Medium',sans-serif">Finland: 7.09%</text><path d="M 401 237
L 378 229" style="stroke-width:2;stroke:rgb(115,192,222);fill:none"/><text x="294" y="236" style="stroke:none;fill:rgb(70,70,70);font-size:13.3px;font-family:'Roboto Medium',sans-serif">France: 6.55%</text><path d="M 363 287
L 354 274" style="stroke-width:2;stroke:rgb(59,162,114);fill:none"/><text x="249" y="274" style="stroke:none;fill:rgb(70,70,70);font-size:13.3px;font-family:'Roboto Medium',sans-serif">Germany: 12.25%</text><path d="M 223 275
L 238 260" style="stroke-width:2;stroke:rgb(252,132,82);fill:none"/><text x="238" y="260" style="stroke:none;fill:rgb(70,70,70);font-size:13.3px;font-family:'Roboto Medium',sans-serif">Greece: 25.1%</text><path d="M 196 175
L 214 179" style="stroke-width:2;stroke:rgb(154,96,180);fill:none"/><text x="214" y="186" style="stroke:none;fill:rgb(70,70,70);font-size:13.3px;font-family:'Roboto Medium',sans-serif">Hungary: 7.14%</text><path d="M 253 103
L 255 103" style="stroke-width:2;stroke:rgb(234,124,204);fill:none"/><text x="255" y="117" style="stroke:none;fill:rgb(70,70,70);font-size:13.3px;font-family:'Roboto Medium',sans-serif">Ireland: 13.01%</text><path d="M 265 98
L 265 98" style="stroke-width:2;stroke:rgb(124,142,199);fill:none"/><text x="265" y="112" style="stroke:none;fill:rgb(70,70,70);font-size:13.3px;font-family:'Roboto Medium',sans-serif">Italy: 7.18%</text></svg>