<svg xmlns="http://www.w3.org/2000/svg" xmlns:xlink="http://www.w3.org/1999/xlink" viewBox="0 0 800 600"><path d="M 0 0
L 800 0
L 800 600
L 0 600
L 0 0" style="stroke:none;fill:white"/><path d="M 0 300
L 400 300
L 400 600
L 0 600
L 0 300" style="stroke:none;fill:white"/><text x="184" y="336" style="stroke:none;fill:rgb(70,70,70);font-size:16px;font-family:'Roboto Medium',sans-serif">Title</text><text x="186" y="352" style="stroke:none;fill:rgb(70,70,70);font-size:16px;font-family:'Roboto Medium',sans-serif">Sub</text><path d="M 200 473
L 200 387.8
A 85.2 85.2 0 0 1 273.87 515.45
L 200 473
Z" style="stroke:none;fill:rgb(91,143,249)"/><path d="M 273 431
L 286 423
M 286 423
L 301 423" style="stroke-width:1;stroke:rgb(91,143,249);fill:none"/><text x="304" y="429" style="stroke:none;fill:rgb(70,70,70);font-size:13.3px;font-family:'Roboto Medium',sans-serif">Series-A: 33.3%</text><path d="M 200 473
L 273.87 515.45
A 85.2 85.2 0 0 1 165.39 550.85
L 200 473
Z" style="stroke:none;fill:rgb(90,216,166)"/><path d="M 226 553
L 231 568
M 231 568
L 246 568" style="stroke-width:1;stroke:rgb(90,216,166);fill:none"/><text x="249" y="574" style="stroke:none;fill:rgb(70,70,70);font-size:13.3px;font-family:'Roboto Medium',sans-serif">Series-B: 23.35%</text><path d="M 200 473
L 165.39 550.85
A 85.2 85.2 0 0 1 114.8 472.53
L 200 473
Z" style="stroke:none;fill:rgb(93,112,146)"/><path d="M 129 519
L 116 527
M 116 527
L 101 527" style="stroke-width:1;stroke:rgb(93,112,146);fill:none"/><text x="-4" y="533" style="stroke:none;fill:rgb(70,70,70);font-size:13.3px;font-family:'Roboto Medium',sans-serif">Series-C: 18.43%</text><path d="M 200 473
L 114.8 472.53
A 85.2 85.2 0 0 1 151.96 402.63
L 200 473
Z" style="stroke:none;fill:rgb(246,189,22)"/><path d="M 125 434
L 112 426
M 112 426
L 97 426" style="stroke-width:1;stroke:rgb(246,189,22);fill:none"/><text x="-8" y="432" style="stroke:none;fill:rgb(70,70,70);font-size:13.3px;font-family:'Roboto Medium',sans-serif">Series-D: 15.37%</text><path d="M 200 473
L 151.96 402.63
A 85.2 85.2 0 0 1 200 387.8
L 200 473
Z" style="stroke:none;fill:rgb(111,94,249)"/><path d="M 175 392
L 171 378
M 171 378
L 156 378" style="stroke-width:1;stroke:rgb(111,94,249);fill:none"/><text x="60" y="384" style="stroke:none;fill:rgb(70,70,70);font-size:13.3px;font-family:'Roboto Medium',sans-serif">Series-E: 9.53%</text><path d="M 400 300
L 800 300
L 800 600
L 400 600
L 400 300" style="stroke:none;fill:white"/><text x="409" y="316" style="stroke:none;fill:rgb(70,70,70);font-size:16px;font-family:'Roboto Medium',sans-serif">200</text><text x="409" y="347" style="stroke:none;fill:rgb(70,70,70);font-size:16px;font-family:'Roboto Medium',sans-serif">175</text><text x="409" y="379" style="stroke:none;fill:rgb(70,70,70);font-size:16px;font-family:'Roboto Medium',sans-serif">150</text><text x="409" y="410" style="stroke:none;fill:rgb(70,70,70);font-size:16px;font-family:'Roboto Medium',sans-serif">125</text><text x="409" y="442" style="stroke:none;fill:rgb(70,70,70);font-size:16px;font-family:'Roboto Medium',sans-serif">100</text><text x="418" y="474" style="stroke:none;fill:rgb(70,70,70);font-size:16px;font-family:'Roboto Medium',sans-serif">75</text><text x="418" y="505" style="stroke:none;fill:rgb(70,70,70);font-size:16px;font-family:'Roboto Medium',sans-serif">50</text><text x="418" y="537" style="stroke:none;fill:rgb(70,70,70);font-size:16px;font-family:'Roboto Medium',sans-serif">25</text><text x="427" y="569" style="stroke:none;fill:rgb(70,70,70);font-size:16px;font-family:'Roboto Medium',sans-serif">0</text><path d="M 443 310
L 790 310" style="stroke-width:1;stroke:rgb(224,230,242);fill:none"/><path d="M 443 341
L 790 341" style="stroke-width:1;stroke:rgb(224,230,242);fill:none"/><path d="M 443 373
L 790 373" style="stroke-width:1;stroke:rgb(224,230,242);fill:none"/><path d="M 443 405
L 790 405" style="stroke-width:1;stroke:rgb(224,230,242);fill:none"/><path d="M 443 437
L 790 437" style="stroke-width:1;stroke:rgb(224,230,242);fill:none"/><path d="M 443 469
L 790 469" style="stroke-width:1;stroke:rgb(224,230,242);fill:none"/><path d="M 443 501
L 790 501" style="stroke-width:1;stroke:rgb(224,230,242);fill:none"/><path d="M 443 533
L 790 533" style="stroke-width:1;stroke:rgb(224,230,242);fill:none"/><path d="M 447 565
L 790 565" style="stroke-width:1;stroke:rgb(110,112,121);fill:none"/><path d="M 447 570
L 447 565" style="stroke-width:1;stroke:rgb(110,112,121);fill:none"/><path d="M 478 570
L 478 565" style="stroke-width:1;stroke:rgb(110,112,121);fill:none"/><path d="M 509 570
L 509 565" style="stroke-width:1;stroke:rgb(110,112,121);fill:none"/><path d="M 540 570
L 540 565" style="stroke-width:1;stroke:rgb(110,112,121);fill:none"/><path d="M 571 570
L 571 565" style="stroke-width:1;stroke:rgb(110,112,121);fill:none"/><path d="M 602 570
L 602 565" style="stroke-width:1;stroke:rgb(110,112,121);fill:none"/><path d="M 634 570
L 634 565" style="stroke-width:1;stroke:rgb(110,112,121);fill:none"/><path d="M 665 570
L 665 565" style="stroke-width:1;stroke:rgb(110,112,121);fill:none"/><path d="M 696 570
L 696 565" style="stroke-width:1;stroke:rgb(110,112,121);fill:none"/><path d="M 727 570
L 727 565" style="stroke-width:1;stroke:rgb(110,112,121);fill:none"/><path d="M 758 570
L 758 565" style="stroke-width:1;stroke:rgb(110,112,121);fill:none"/><path d="M 790 570
L 790 565" style="stroke-width:1;stroke:rgb(110,112,121);fill:none"/><text x="446" y="588" style="stroke:none;fill:rgb(70,70,70);font-size:16px;font-family:'Roboto Medium',sans-serif">Jan</text><text x="508" y="588" style="stroke:none;fill:rgb(70,70,70);font-size:16px;font-family:'Roboto Medium',sans-serif">Mar</text><text x="570" y="588" style="stroke:none;fill:rgb(70,70,70);font-size:16px;font-family:'Roboto Medium',sans-serif">May</text><text x="633" y="588" style="stroke:none;fill:rgb(70,70,70);font-size:16px;font-family:'Roboto Medium',sans-serif">Jul</text><text x="664" y="588" style="stroke:none;fill:rgb(70,70,70);font-size:16px;font-family:'Roboto Medium',sans-serif">Aug</text><text x="726" y="588" style="stroke:none;fill:rgb(70,70,70);font-size:16px;font-family:'Roboto Medium',sans-serif">Oct</text><text x="762" y="588" style="stroke:none;fill:rgb(70,70,70);font-size:16px;font-family:'Roboto Medium',sans-serif">Dec</text><path d="M 452 563
L 459 563
L 459 564
L 452 564
L 452 563" style="stroke:none;fill:rgb(84,112,198)"/><path d="M 480 559
L 487 559
L 487 564
L 480 564
L 480 559" style="stroke:none;fill:rgb(84,112,198)"/><path d="M 509 557
L 516 557
L 516 564
L 509 564
L 509 557" style="stroke:none;fill:rgb(84,112,198)"/><path d="M 537 536
L 544 536
L 544 564
L 537 564
L 537 536" style="stroke:none;fill:rgb(84,112,198)"/><path d="M 566 533
L 573 533
L 573 564
L 566 564
L 566 533" style="stroke:none;fill:rgb(84,112,198)"/><path d="M 594 468
L 601 468
L 601 564
L 594 564
L 594 468" style="stroke:none;fill:rgb(84,112,198)"/><path d="M 623 393
L 630 393
L 630 564
L 623 564
L 623 393" style="stroke:none;fill:rgb(84,112,198)"/><path d="M 652 359
L 659 359
L 659 564
L 652 564
L 652 359" style="stroke:none;fill:rgb(84,112,198)"/><path d="M 680 524
L 687 524
L 687 564
L 680 564
L 680 524" style="stroke:none;fill:rgb(84,112,198)"/><path d="M 709 540
L 716 540
L 716 564
L 709 564
L 709 540" style="stroke:none;fill:rgb(84,112,198)"/><path d="M 737 557
L 744 557
L 744 564
L 737 564
L 737 557" style="stroke:none;fill:rgb(84,112,198)"/><path d="M 766 561
L 773 561
L 773 564
L 766 564
L 766 561" style="stroke:none;fill:rgb(84,112,198)"/><path d="M 462 562
L 469 562
L 469 564
L 462 564
L 462 562" style="stroke:none;fill:rgb(145,204,117)"/><path d="M 490 558
L 497 558
L 497 564
L 490 564
L 490 558" style="stroke:none;fill:rgb(145,204,117)"/><path d="M 519 554
L 526 554
L 526 564
L 519 564
L 519 554" style="stroke:none;fill:rgb(145,204,117)"/><path d="M 547 532
L 554 532
L 554 564
L 547 564
L 547 532" style="stroke:none;fill:rgb(145,204,117)"/><path d="M 576 529
L 583 529
L 583 564
L 576 564
L 576 529" style="stroke:none;fill:rgb(145,204,117)"/><path d="M 604 475
L 611 475
L 611 564
L 604 564
L 604 475" style="stroke:none;fill:rgb(145,204,117)"/><path d="M 633 342
L 640 342
L 640 564
L 633 564
L 633 342" style="stroke:none;fill:rgb(145,204,117)"/><path d="M 662 333
L 669 333
L 669 564
L 662 564
L 662 333" style="stroke:none;fill:rgb(145,204,117)"/><path d="M 690 503
L 697 503
L 697 564
L 690 564
L 690 503" style="stroke:none;fill:rgb(145,204,117)"/><path d="M 719 542
L 726 542
L 726 564
L 719 564
L 719 542" style="stroke:none;fill:rgb(145,204,117)"/><path d="M 747 558
L 754 558
L 754 564
L 747 564
L 747 558" style="stroke:none;fill:rgb(145,204,117)"/><path d="M 776 563
L 783 563
L 783 564
L 776 564
L 776 563" style="stroke:none;fill:rgb(145,204,117)"/><text x="451" y="558" style="stroke:none;fill:rgb(70,70,70);font-size:13.3px;font-family:'Roboto Medium',sans-serif">2</text><text x="474" y="554" style="stroke:none;fill:rgb(70,70,70);font-size:13.3px;font-family:'Roboto Medium',sans-serif">4.9</text><text x="508" y="552" style="stroke:none;fill:rgb(70,70,70);font-size:13.3px;font-family:'Roboto Medium',sans-serif">7</text><text x="527" y="531" style="stroke:none;fill:rgb(70,70,70);font-size:13.3px;font-family:'Roboto Medium',sans-serif">23.2</text><text x="556" y="528" style="stroke:none;fill:rgb(70,70,70);font-size:13.3px;font-family:'Roboto Medium',sans-serif">25.6</text><text x="584" y="463" style="stroke:none;fill:rgb(70,70,70);font-size:13.3px;font-family:'Roboto Medium',sans-serif">76.7</text><text x="609" y="388" style="stroke:none;fill:rgb(70,70,70);font-size:13.3px;font-family:'Roboto Medium',sans-serif">135.6</text><text x="638" y="354" style="stroke:none;fill:rgb(70,70,70);font-size:13.3px;font-family:'Roboto Medium',sans-serif">162.2</text><text x="670" y="519" style="stroke:none;fill:rgb(70,70,70);font-size:13.3px;font-family:'Roboto Medium',sans-serif">32.6</text><text x="704" y="535" style="stroke:none;fill:rgb(70,70,70);font-size:13.3px;font-family:'Roboto Medium',sans-serif">20</text><text x="731" y="552" style="stroke:none;fill:rgb(70,70,70);font-size:13.3px;font-family:'Roboto Medium',sans-serif">6.4</text><text x="760" y="556" style="stroke:none;fill:rgb(70,70,70);font-size:13.3px;font-family:'Roboto Medium',sans-serif">3.3</text><text x="456" y="557" style="stroke:none;fill:rgb(70,70,70);font-size:13.3px;font-family:'Roboto Medium',sans-serif">2.6</text><text x="484" y="553" style="stroke:none;fill:rgb(70,70,70);font-size:13.3px;font-family:'Roboto Medium',sans-serif">5.9</text><text x="518" y="549" style="stroke:none;fill:rgb(70,70,70);font-size:13.3px;font-family:'Roboto Medium',sans-serif">9</text><text x="537" y="527" style="stroke:none;fill:rgb(70,70,70);font-size:13.3px;font-family:'Roboto Medium',sans-serif">26.4</text><text x="566" y="524" style="stroke:none;fill:rgb(70,70,70);font-size:13.3px;font-family:'Roboto Medium',sans-serif">28.7</text><text x="594" y="470" style="stroke:none;fill:rgb(70,70,70);font-size:13.3px;font-family:'Roboto Medium',sans-serif">70.7</text><text x="619" y="337" style="stroke:none;fill:rgb(70,70,70);font-size:13.3px;font-family:'Roboto Medium',sans-serif">175.6</text><text x="648" y="328" style="stroke:none;fill:rgb(70,70,70);font-size:13.3px;font-family:'Roboto Medium',sans-serif">182.2</text><text x="680" y="498" style="stroke:none;fill:rgb(70,70,70);font-size:13.3px;font-family:'Roboto Medium',sans-serif">48.7</text><text x="709" y="537" style="stroke:none;fill:rgb(70,70,70);font-size:13.3px;font-family:'Roboto Medium',sans-serif">18.8</text><text x="746" y="553" style="stroke:none;fill:rgb(70,70,70);font-size:13.3px;font-family:'Roboto Medium',sans-serif">6</text><text x="770" y="558" style="stroke:none;fill:rgb(70,70,70);font-size:13.3px;font-family:'Roboto Medium',sans-serif">2.3</text><path d="M 0 0
L 800 0
L 800 300
L 0 300
L 0 0" style="stroke:none;fill:white"/><text x="10" y="26" style="stroke:none;fill:rgb(70,70,70);font-size:16px;font-family:'Roboto Medium',sans-serif">Line</text><path d="M 349 19
L 379 19" style="stroke-width:3;stroke:rgb(255,100,100);fill:none"/><circle cx="364" cy="19" r="5" style="stroke-width:3;stroke:rgb(255,100,100);fill:rgb(255,100,100)"/><text x="381" y="25" style="stroke:none;fill:rgb(70,70,70);font-size:16px;font-family:'Roboto Medium',sans-serif">1</text><path d="M 411 19
L 441 19" style="stroke-width:3;stroke:rgb(255,210,100);fill:none"/><circle cx="426" cy="19" r="5" style="stroke-width:3;stroke:rgb(255,210,100);fill:rgb(255,210,100)"/><text x="443" y="25" style="stroke:none;fill:rgb(70,70,70);font-size:16px;font-family:'Roboto Medium',sans-serif">2</text><text x="9" y="52" style="stroke:none;fill:rgb(70,70,70);font-size:16px;font-family:'Roboto Medium',sans-serif">1.6k</text><text x="9" y="79" style="stroke:none;fill:rgb(70,70,70);font-size:16px;font-family:'Roboto Medium',sans-serif">1.4k</text><text x="9" y="106" style="stroke:none;fill:rgb(70,70,70);font-size:16px;font-family:'Roboto Medium',sans-serif">1.2k</text><text x="22" y="133" style="stroke:none;fill:rgb(70,70,70);font-size:16px;font-family:'Roboto Medium',sans-serif">1k</text><text x="12" y="160" style="stroke:none;fill:rgb(70,70,70);font-size:16px;font-family:'Roboto Medium',sans-serif">800</text><text x="12" y="187" style="stroke:none;fill:rgb(70,70,70);font-size:16px;font-family:'Roboto Medium',sans-serif">600</text><text x="12" y="214" style="stroke:none;fill:rgb(70,70,70);font-size:16px;font-family:'Roboto Medium',sans-serif">400</text><text x="12" y="241" style="stroke:none;fill:rgb(70,70,70);font-size:16px;font-family:'Roboto Medium',sans-serif">200</text><text x="30" y="269" style="stroke:none;fill:rgb(70,70,70);font-size:16px;font-family:'Roboto Medium',sans-serif">0</text><path d="M 46 46
L 790 46" style="stroke-width:1;stroke:rgb(224,230,242);fill:none"/><path d="M 46 73
L 790 73" style="stroke-width:1;stroke:rgb(224,230,242);fill:none"/><path d="M 46 100
L 790 100" style="stroke-width:1;stroke:rgb(224,230,242);fill:none"/><path d="M 46 128
L 790 128" style="stroke-width:1;stroke:rgb(224,230,242);fill:none"/><path d="M 46 155
L 790 155" style="stroke-width:1;stroke:rgb(224,230,242);fill:none"/><path d="M 46 182
L 790 182" style="stroke-width:1;stroke:rgb(224,230,242);fill:none"/><path d="M 46 210
L 790 210" style="stroke-width:1;stroke:rgb(224,230,242);fill:none"/><path d="M 46 237
L 790 237" style="stroke-width:1;stroke:rgb(224,230,242);fill:none"/><path d="M 50 265
L 790 265" style="stroke-width:1;stroke:rgb(110,112,121);fill:none"/><path d="M 50 270
L 50 265" style="stroke-width:1;stroke:rgb(110,112,121);fill:none"/><path d="M 155 270
L 155 265" style="stroke-width:1;stroke:rgb(110,112,121);fill:none"/><path d="M 261 270
L 261 265" style="stroke-width:1;stroke:rgb(110,112,121);fill:none"/><path d="M 367 270
L 367 265" style="stroke-width:1;stroke:rgb(110,112,121);fill:none"/><path d="M 472 270
L 472 265" style="stroke-width:1;stroke:rgb(110,112,121);fill:none"/><path d="M 578 270
L 578 265" style="stroke-width:1;stroke:rgb(110,112,121);fill:none"/><path d="M 684 270
L 684 265" style="stroke-width:1;stroke:rgb(110,112,121);fill:none"/><path d="M 790 270
L 790 265" style="stroke-width:1;stroke:rgb(110,112,121);fill:none"/><text x="97" y="288" style="stroke:none;fill:rgb(70,70,70);font-size:16px;font-family:'Roboto Medium',sans-serif">A</text><text x="203" y="288" style="stroke:none;fill:rgb(70,70,70);font-size:16px;font-family:'Roboto Medium',sans-serif">B</text><text x="309" y="288" style="stroke:none;fill:rgb(70,70,70);font-size:16px;font-family:'Roboto Medium',sans-serif">C</text><text x="414" y="288" style="stroke:none;fill:rgb(70,70,70);font-size:16px;font-family:'Roboto Medium',sans-serif">D</text><text x="520" y="288" style="stroke:none;fill:rgb(70,70,70);font-size:16px;font-family:'Roboto Medium',sans-serif">E</text><text x="627" y="288" style="stroke:none;fill:rgb(70,70,70);font-size:16px;font-family:'Roboto Medium',sans-serif">F</text><text x="732" y="288" style="stroke:none;fill:rgb(70,70,70);font-size:16px;font-family:'Roboto Medium',sans-serif">G</text><path d="M 102 249
L 208 247
L 314 252
L 419 247
L 525 253
L 631 234
L 737 237" style="stroke-width:2;stroke:rgb(255,100,100);fill:none"/><circle cx="102" cy="249" r="2.4" style="stroke-width:1;stroke:rgb(255,100,100);fill:white"/><circle cx="208" cy="247" r="2.4" style="stroke-width:1;stroke:rgb(255,100,100);fill:white"/><circle cx="314" cy="252" r="2.4" style="stroke-width:1;stroke:rgb(255,100,100);fill:white"/><circle cx="419" cy="247" r="2.4" style="stroke-width:1;stroke:rgb(255,100,100);fill:white"/><circle cx="525" cy="253" r="2.4" style="stroke-width:1;stroke:rgb(255,100,100);fill:white"/><circle cx="631" cy="234" r="2.4" style="stroke-width:1;stroke:rgb(255,100,100);fill:white"/><circle cx="737" cy="237" r="2.4" style="stroke-width:1;stroke:rgb(255,100,100);fill:white"/><path d="M 102 153
L 208 138
L 314 142
L 419 138
L 525 89
L 631 83
L 737 85" style="stroke-width:2;stroke:rgb(255,210,100);fill:none"/><circle cx="102" cy="153" r="2.4" style="stroke-width:1;stroke:rgb(255,210,100);fill:white"/><circle cx="208" cy="138" r="2.4" style="stroke-width:1;stroke:rgb(255,210,100);fill:white"/><circle cx="314" cy="142" r="2.4" style="stroke-width:1;stroke:rgb(255,210,100);fill:white"/><circle cx="419" cy="138" r="2.4" style="stroke-width:1;stroke:rgb(255,210,100);fill:white"/><circle cx="525" cy="89" r="2.4" style="stroke-width:1;stroke:rgb(255,210,100);fill:white"/><circle cx="631" cy="83" r="2.4" style="stroke-width:1;stroke:rgb(255,210,100);fill:white"/><circle cx="737" cy="85" r="2.4" style="stroke-width:1;stroke:rgb(255,210,100);fill:white"/></svg>