<svg xmlns="http://www.w3.org/2000/svg" xmlns:xlink="http://www.w3.org/1999/xlink" viewBox="0 0 600 400"><path d="M 0 0
L 600 0
L 600 400
L 0 400
L 0 0" style="stroke:none;fill:white"/><path d="M 197 29
L 227 29" style="stroke-width:3;stroke:rgb(84,112,198);fill:none"/><circle cx="212" cy="29" r="5" style="stroke-width:3;stroke:rgb(84,112,198);fill:rgb(84,112,198)"/><text x="229" y="35" style="stroke:none;fill:rgb(70,70,70);font-size:15.3px;font-family:'Roboto Medium',sans-serif">Bar Data</text><path d="M 308 29
L 338 29" style="stroke-width:3;stroke:rgb(145,204,117);fill:none"/><circle cx="323" cy="29" r="5" style="stroke-width:3;stroke:rgb(145,204,117);fill:rgb(145,204,117)"/><text x="340" y="35" style="stroke:none;fill:rgb(70,70,70);font-size:15.3px;font-family:'Roboto Medium',sans-serif">Line Data</text><text x="550" y="62" style="stroke:none;fill:rgb(70,70,70);font-size:15.3px;font-family:'Roboto Medium',sans-serif">3</text><text x="550" y="95" style="stroke:none;fill:rgb(70,70,70);font-size:15.3px;font-family:'Roboto Medium',sans-serif">2.78</text><text x="550" y="128" style="stroke:none;fill:rgb(70,70,70);font-size:15.3px;font-family:'Roboto Medium',sans-serif">2.56</text><text x="550" y="161" style="stroke:none;fill:rgb(70,70,70);font-size:15.3px;font-family:'Roboto Medium',sans-serif">2.33</text><text x="550" y="194" style="stroke:none;fill:rgb(70,70,70);font-size:15.3px;font-family:'Roboto Medium',sans-serif">2.11</text><text x="550" y="227" style="stroke:none;fill:rgb(70,70,70);font-size:15.3px;font-family:'Roboto Medium',sans-serif">1.89</text><text x="550" y="260" style="stroke:none;fill:rgb(70,70,70);font-size:15.3px;font-family:'Roboto Medium',sans-serif">1.67</text><text x="550" y="293" style="stroke:none;fill:rgb(70,70,70);font-size:15.3px;font-family:'Roboto Medium',sans-serif">1.44</text><text x="550" y="326" style="stroke:none;fill:rgb(70,70,70);font-size:15.3px;font-family:'Roboto Medium',sans-serif">1.22</text><text x="550" y="359" style="stroke:none;fill:rgb(70,70,70);font-size:15.3px;font-family:'Roboto Medium',sans-serif">1</text><text x="40" y="62" style="stroke:none;fill:rgb(70,70,70);font-size:15.3px;font-family:'Roboto Medium',sans-serif">150</text><text x="19" y="95" style="stroke:none;fill:rgb(70,70,70);font-size:15.3px;font-family:'Roboto Medium',sans-serif">141.11</text><text x="19" y="128" style="stroke:none;fill:rgb(70,70,70);font-size:15.3px;font-family:'Roboto Medium',sans-serif">132.22</text><text x="19" y="161" style="stroke:none;fill:rgb(70,70,70);font-size:15.3px;font-family:'Roboto Medium',sans-serif">123.33</text><text x="19" y="194" style="stroke:none;fill:rgb(70,70,70);font-size:15.3px;font-family:'Roboto Medium',sans-serif">114.44</text><text x="19" y="227" style="stroke:none;fill:rgb(70,70,70);font-size:15.3px;font-family:'Roboto Medium',sans-serif">105.56</text><text x="27" y="260" style="stroke:none;fill:rgb(70,70,70);font-size:15.3px;font-family:'Roboto Medium',sans-serif">96.67</text><text x="27" y="293" style="stroke:none;fill:rgb(70,70,70);font-size:15.3px;font-family:'Roboto Medium',sans-serif">87.78</text><text x="27" y="326" style="stroke:none;fill:rgb(70,70,70);font-size:15.3px;font-family:'Roboto Medium',sans-serif">78.89</text><text x="49" y="359" style="stroke:none;fill:rgb(70,70,70);font-size:15.3px;font-family:'Roboto Medium',sans-serif">70</text><path d="M 73 56
L 540 56" style="stroke-width:1;stroke:rgb(224,230,242);fill:none"/><path d="M 73 89
L 540 89" style="stroke-width:1;stroke:rgb(224,230,242);fill:none"/><path d="M 73 122
L 540 122" style="stroke-width:1;stroke:rgb(224,230,242);fill:none"/><path d="M 73 155
L 540 155" style="stroke-width:1;stroke:rgb(224,230,242);fill:none"/><path d="M 73 188
L 540 188" style="stroke-width:1;stroke:rgb(224,230,242);fill:none"/><path d="M 73 222
L 540 222" style="stroke-width:1;stroke:rgb(224,230,242);fill:none"/><path d="M 73 255
L 540 255" style="stroke-width:1;stroke:rgb(224,230,242);fill:none"/><path d="M 73 288
L 540 288" style="stroke-width:1;stroke:rgb(224,230,242);fill:none"/><path d="M 73 321
L 540 321" style="stroke-width:1;stroke:rgb(224,230,242);fill:none"/><path d="M 77 355
L 540 355" style="stroke-width:1;stroke:rgb(110,112,121);fill:none"/><path d="M 77 360
L 77 355" style="stroke-width:1;stroke:rgb(110,112,121);fill:none"/><path d="M 143 360
L 143 355" style="stroke-width:1;stroke:rgb(110,112,121);fill:none"/><path d="M 209 360
L 209 355" style="stroke-width:1;stroke:rgb(110,112,121);fill:none"/><path d="M 275 360
L 275 355" style="stroke-width:1;stroke:rgb(110,112,121);fill:none"/><path d="M 341 360
L 341 355" style="stroke-width:1;stroke:rgb(110,112,121);fill:none"/><path d="M 407 360
L 407 355" style="stroke-width:1;stroke:rgb(110,112,121);fill:none"/><path d="M 473 360
L 473 355" style="stroke-width:1;stroke:rgb(110,112,121);fill:none"/><path d="M 540 360
L 540 355" style="stroke-width:1;stroke:rgb(110,112,121);fill:none"/><text x="95" y="378" style="stroke:none;fill:rgb(70,70,70);font-size:15.3px;font-family:'Roboto Medium',sans-serif">Mon</text><text x="163" y="378" style="stroke:none;fill:rgb(70,70,70);font-size:15.3px;font-family:'Roboto Medium',sans-serif">Tue</text><text x="227" y="378" style="stroke:none;fill:rgb(70,70,70);font-size:15.3px;font-family:'Roboto Medium',sans-serif">Wed</text><text x="295" y="378" style="stroke:none;fill:rgb(70,70,70);font-size:15.3px;font-family:'Roboto Medium',sans-serif">Thu</text><text x="365" y="378" style="stroke:none;fill:rgb(70,70,70);font-size:15.3px;font-family:'Roboto Medium',sans-serif">Fri</text><text x="429" y="378" style="stroke:none;fill:rgb(70,70,70);font-size:15.3px;font-family:'Roboto Medium',sans-serif">Sat</text><text x="493" y="378" style="stroke:none;fill:rgb(70,70,70);font-size:15.3px;font-family:'Roboto Medium',sans-serif">Sun</text><path d="M 87 355
L 133 355
L 133 354
L 87 354
L 87 355" style="stroke:none;fill:rgb(84,112,198)"/><path d="M 153 281
L 199 281
L 199 354
L 153 354
L 153 281" style="stroke:none;fill:rgb(84,112,198)"/><path d="M 219 206
L 265 206
L 265 354
L 219 354
L 219 206" style="stroke:none;fill:rgb(84,112,198)"/><path d="M 285 131
L 331 131
L 331 354
L 285 354
L 285 131" style="stroke:none;fill:rgb(84,112,198)"/><path d="M 351 318
L 397 318
L 397 354
L 351 354
L 351 318" style="stroke:none;fill:rgb(84,112,198)"/><path d="M 417 243
L 463 243
L 463 354
L 417 354
L 417 243" style="stroke:none;fill:rgb(84,112,198)"/><path d="M 483 169
L 529 169
L 529 354
L 483 354
L 483 169" style="stroke:none;fill:rgb(84,112,198)"/><path d="M 110 326
L 176 236
L 242 161
L 308 221
L 374 131
L 440 266
L 506 191" style="stroke-width:2;stroke:rgb(145,204,117);fill:none"/><circle cx="110" cy="326" r="2" style="stroke-width:1;stroke:rgb(145,204,117);fill:white"/><circle cx="176" cy="236" r="2" style="stroke-width:1;stroke:rgb(145,204,117);fill:white"/><circle cx="242" cy="161" r="2" style="stroke-width:1;stroke:rgb(145,204,117);fill:white"/><circle cx="308" cy="221" r="2" style="stroke-width:1;stroke:rgb(145,204,117);fill:white"/><circle cx="374" cy="131" r="2" style="stroke-width:1;stroke:rgb(145,204,117);fill:white"/><circle cx="440" cy="266" r="2" style="stroke-width:1;stroke:rgb(145,204,117);fill:white"/><circle cx="506" cy="191" r="2" style="stroke-width:1;stroke:rgb(145,204,117);fill:white"/></svg>